<svg width="25" height="25" viewBox="0 0 25 25" fill="none" xmlns="http://www.w3.org/2000/svg">
<path fill-rule="evenodd" clip-rule="evenodd" d="M18.8447 6.19963C18.8457 6.19705 18.8466 6.19445 18.8474 6.19182L18.8479 6.1923C18.602 5.91893 18.3561 5.64566 18.1101 5.37238C17.6184 4.82596 17.1267 4.27953 16.6357 3.73238C16.5732 3.66315 16.5135 3.59079 16.4539 3.5185C16.4242 3.48248 16.3945 3.44647 16.3645 3.41089C16.2686 3.42649 11.9543 7.64472 6.85665 12.6288C5.76807 13.6932 4.64378 14.7924 3.51721 15.8932C3.4997 15.9103 3.48054 15.9262 3.46131 15.9422C3.39886 15.9941 3.33567 16.0466 3.32556 16.1437L3.32593 16.1441C4.15071 17.0454 4.97549 17.9466 5.80069 18.8474C5.82555 18.8748 5.85199 18.9001 5.87852 18.9255C5.88784 18.9344 5.89717 18.9434 5.90644 18.9524C5.90622 18.9555 5.90604 18.9586 5.90591 18.9618C6.0891 19.1653 6.27234 19.3688 6.4556 19.5723C7.00384 20.1812 7.55221 20.7902 8.09962 21.3996C8.17068 21.4789 8.23923 21.5607 8.30778 21.6425C8.33633 21.6765 8.36488 21.7106 8.39362 21.7445C8.50475 21.7413 8.56638 21.6676 8.62704 21.595C8.64711 21.571 8.66708 21.5471 8.6887 21.5259C15.055 15.3112 21.3513 9.17961 21.4543 9.08159C21.4544 9.08144 21.4546 9.0813 21.4547 9.08118M18.8447 6.19963C18.9557 6.31917 19.0673 6.43809 19.1788 6.557C19.4281 6.82281 19.6773 7.08855 19.9202 7.36089C20.0901 7.55129 20.2635 7.73813 20.437 7.92495C20.7861 8.30094 21.1351 8.67685 21.4543 9.08159" fill="#6224FD"/>
<path d="M3.32466 16.1451C4.14956 17.0465 4.97446 17.9479 5.79979 18.8488C5.83581 18.8884 5.87559 18.9243 5.91327 18.9614C6.6445 19.7737 7.37617 20.5865 8.10698 21.3992C8.20763 21.5116 8.30326 21.6288 8.40098 21.7441C7.47034 22.0041 6.51282 22.1773 5.565 22.3802C5.02915 22.4948 4.50693 22.66 3.95056 22.7035C3.34385 22.0358 2.7367 21.3677 2.12998 20.7C2.25604 19.9778 2.46755 19.287 2.65621 18.5885C2.87716 17.7734 3.04325 16.9363 3.3238 16.145L3.32466 16.1451Z" fill="white"/>
<path d="M23.9106 6.46937C23.8335 6.67815 23.7033 6.87036 23.5565 7.04689C23.3582 7.28576 23.1419 7.5075 22.9194 7.72159C22.4837 8.14167 22.0212 8.53319 21.611 8.98127C21.5601 9.03653 21.5034 9.06192 21.4265 9.01393C21.3802 8.95431 21.3376 8.89191 21.2871 8.83638C19.655 7.03916 18.0215 5.24228 16.389 3.44547C16.5508 3.18121 16.7999 3.00768 17.0104 2.79434C17.3868 2.41412 17.782 2.05376 18.1531 1.66863C18.439 1.37231 18.8151 1.06817 19.2558 1.0375C19.8529 0.997132 20.3053 1.56296 20.6964 1.99623C21.2795 2.64317 21.863 3.2897 22.4462 3.93664C22.7331 4.25459 23.0192 4.57247 23.3061 4.89042C23.4876 5.09161 23.7083 5.28905 23.8373 5.53156C24.021 5.87669 24.0143 6.1881 23.911 6.46896L23.9106 6.46937Z" fill="#9192FF"/>
<path d="M2.13447 20.6975C2.74118 21.3651 3.34833 22.0333 3.95505 22.7009C3.33261 22.8437 2.70974 22.986 2.05795 23.1356C1.78905 23.1971 1.5303 22.9127 1.60501 22.6378C1.78597 21.9751 1.96022 21.3363 2.13489 20.6971L2.13447 20.6975Z" fill="#6224FD"/>
</svg>
