<svg width="25" height="25" viewBox="0 0 25 25" fill="none" xmlns="http://www.w3.org/2000/svg">
<g id="Group 2085666160">
<circle id="Ellipse 3647" cx="12.5" cy="12.5" r="11.79" fill="#9192FF" stroke="url(#paint0_linear_1_1314)" stroke-width="0.42"/>
<circle id="Ellipse 3648" cx="12.7359" cy="12.7371" r="8.4" fill="white"/>
<circle id="Ellipse 3649" cx="12.7353" cy="12.7409" r="5.04" fill="#6224FD"/>
<g id="Group 2085666159">
<path id="Vector" d="M19.6865 2.90534L19.0325 0.771242C18.9733 0.577924 18.718 0.533614 18.6011 0.69619L16.6232 3.44553C16.5552 3.54013 16.5295 3.65875 16.5523 3.77302L17.0906 6.4695C17.1117 6.60469 17.2404 6.69722 17.3753 6.67429L20.103 6.32731C20.2186 6.3126 20.3229 6.25053 20.3909 6.15593L22.3687 3.40659C22.4857 3.24402 22.3624 3.01625 22.1604 3.02143L19.9288 3.07992C19.8183 3.08285 19.7189 3.01111 19.6865 2.90534Z" fill="#2F00A4"/>
<path id="Vector_2" d="M17.4532 6.22835C17.268 6.09506 17.0204 6.12114 16.9015 6.28647L12.3269 12.6455C12.208 12.8108 12.262 13.0538 12.4472 13.1871C12.6325 13.3204 12.8801 13.2943 12.999 13.129L17.5736 6.76996C17.6925 6.60463 17.6385 6.36163 17.4532 6.22835Z" fill="#2F00A4"/>
</g>
</g>
<defs>
<linearGradient id="paint0_linear_1_1314" x1="24.5" y1="14.1" x2="2.9" y2="19.7" gradientUnits="userSpaceOnUse">
<stop stop-color="white"/>
<stop offset="1" stop-color="white" stop-opacity="0"/>
</linearGradient>
</defs>
</svg>
