<svg width="18" height="41" viewBox="0 0 18 41" fill="none" xmlns="http://www.w3.org/2000/svg">
<rect x="0.5" y="0.5" width="17" height="40" rx="6.5" fill="#F7F3FF"/>
<rect x="0.5" y="0.5" width="17" height="40" rx="6.5" stroke="#EBE9F5"/>
<path fill-rule="evenodd" clip-rule="evenodd" d="M4.1263 22.8921C4.35849 22.6857 4.71403 22.7066 4.92042 22.9388L9.00001 27.5283L13.0796 22.9388C13.286 22.7066 13.6415 22.6857 13.8737 22.8921C14.1059 23.0985 14.1268 23.454 13.9204 23.6862L9.42042 28.7487C9.31368 28.8688 9.16068 28.9375 9.00001 28.9375C8.83933 28.9375 8.68633 28.8688 8.57959 28.7487L4.07959 23.6862C3.8732 23.454 3.89411 23.0985 4.1263 22.8921Z" fill="#434343"/>
<path fill-rule="evenodd" clip-rule="evenodd" d="M4.1263 18.1079C3.89411 17.9015 3.8732 17.546 4.07959 17.3138L8.57959 12.2513C8.68633 12.1312 8.83933 12.0625 9.00001 12.0625C9.16068 12.0625 9.31368 12.1312 9.42042 12.2513L13.9204 17.3138C14.1268 17.546 14.1059 17.9015 13.8737 18.1079C13.6415 18.3143 13.286 18.2934 13.0796 18.0612L9.00001 13.4717L4.92042 18.0612C4.71403 18.2934 4.35849 18.3143 4.1263 18.1079Z" fill="#434343"/>
</svg>
