<svg width="15" height="16" viewBox="0 0 15 16" fill="none" xmlns="http://www.w3.org/2000/svg">
<mask id="mask0_1_624" style="mask-type:alpha" maskUnits="userSpaceOnUse" x="0" y="0" width="15" height="16">
<rect y="0.5" width="15" height="15" fill="#D9D9D9"/>
</mask>
<g mask="url(#mask0_1_624)">
<path d="M6.84375 10.1535L9.01562 7.98158C9.14062 7.85658 9.29167 7.79408 9.46875 7.79408C9.64583 7.79408 9.79688 7.85658 9.92188 7.98158C10.0469 8.10658 10.1094 8.25762 10.1094 8.43471C10.1094 8.61179 10.0469 8.76283 9.92188 8.88783L7.28125 11.5285C7.15625 11.6535 7.01042 11.716 6.84375 11.716C6.67708 11.716 6.53125 11.6535 6.40625 11.5285L5.07812 10.2003C4.95312 10.0753 4.89063 9.92429 4.89063 9.74721C4.89063 9.57012 4.95312 9.41908 5.07812 9.29408C5.20312 9.16908 5.35417 9.10658 5.53125 9.10658C5.70833 9.10658 5.85938 9.16908 5.98438 9.29408L6.84375 10.1535ZM3.125 14.2472C2.78125 14.2472 2.48698 14.1248 2.24219 13.88C1.9974 13.6352 1.875 13.341 1.875 12.9972V4.24721C1.875 3.90346 1.9974 3.60919 2.24219 3.3644C2.48698 3.1196 2.78125 2.99721 3.125 2.99721H3.75V2.37221C3.75 2.19512 3.8099 2.04669 3.92969 1.9269C4.04948 1.8071 4.19792 1.74721 4.375 1.74721C4.55208 1.74721 4.70052 1.8071 4.82031 1.9269C4.9401 2.04669 5 2.19512 5 2.37221V2.99721H10V2.37221C10 2.19512 10.0599 2.04669 10.1797 1.9269C10.2995 1.8071 10.4479 1.74721 10.625 1.74721C10.8021 1.74721 10.9505 1.8071 11.0703 1.9269C11.1901 2.04669 11.25 2.19512 11.25 2.37221V2.99721H11.875C12.2188 2.99721 12.513 3.1196 12.7578 3.3644C13.0026 3.60919 13.125 3.90346 13.125 4.24721V12.9972C13.125 13.341 13.0026 13.6352 12.7578 13.88C12.513 14.1248 12.2188 14.2472 11.875 14.2472H3.125ZM3.125 12.9972H11.875V6.74721H3.125V12.9972Z" fill="#BEB4BF"/>
</g>
</svg>
