<svg width="100" height="100" viewBox="0 0 100 100" fill="none" xmlns="http://www.w3.org/2000/svg">
<circle cx="50" cy="50" r="49" fill="#FAFAFA" stroke="#6224FD" stroke-width="2"/>
<path d="M55.6193 28.3636L54.5114 58.3636H44.7955L43.6875 28.3636H55.6193ZM49.6534 72.6818C48.0057 72.6818 46.5923 72.1065 45.4134 70.956C44.2486 69.7912 43.6733 68.3778 43.6875 66.7159C43.6733 65.0966 44.2486 63.7116 45.4134 62.5611C46.5923 61.4105 48.0057 60.8352 49.6534 60.8352C51.2159 60.8352 52.5938 61.4105 53.7869 62.5611C54.9943 63.7116 55.6051 65.0966 55.6193 66.7159C55.6051 67.8239 55.3139 68.8324 54.7457 69.7415C54.1918 70.6364 53.4673 71.3537 52.5724 71.8935C51.6776 72.419 50.7045 72.6818 49.6534 72.6818Z" fill="#6224FD"/>
</svg>
