<svg width="375" height="332" viewBox="0 0 375 332" fill="none" xmlns="http://www.w3.org/2000/svg">
<path d="M264.422 103.18H117.859C115.816 103.18 114.16 104.836 114.16 106.878V193.748C114.16 195.79 115.816 197.446 117.859 197.446H264.422C266.465 197.446 268.121 195.79 268.121 193.748V106.878C268.121 104.836 266.465 103.18 264.422 103.18Z" fill="url(#paint0_linear_2038_2579)"/>
<path d="M274.999 220.619H107.289L114.159 193.906H268.129L274.999 220.619Z" fill="#CCCCCC"/>
<path d="M274.999 220.619H107.289L114.159 193.906H268.129L274.999 220.619Z" fill="url(#paint1_linear_2038_2579)"/>
<path d="M257.023 181.729V118.901C257.023 116.347 254.954 114.277 252.4 114.277L129.877 114.277C127.324 114.277 125.254 116.347 125.254 118.901V181.729C125.254 184.283 127.324 186.353 129.877 186.353H252.4C254.954 186.353 257.023 184.283 257.023 181.729Z" fill="url(#paint2_linear_2038_2579)"/>
<path d="M107.289 224.621C107.289 222.412 109.08 220.621 111.289 220.621H270.999C273.208 220.621 274.999 222.412 274.999 224.621V225.701C274.999 227.91 273.208 229.701 270.999 229.701H111.829C109.323 229.701 107.289 227.667 107.289 225.161V224.621Z" fill="url(#paint3_linear_2038_2579)"/>
<path d="M121.538 197.078L117.414 205.918H261.759L259.105 197.078H121.538Z" fill="url(#paint4_linear_2038_2579)"/>
<path d="M261.759 205.914H117.414V209.89H261.759V205.914Z" fill="url(#paint5_linear_2038_2579)"/>
<g filter="url(#filter0_b_2038_2579)">
<path d="M239.177 164.135C245.218 164.135 250.115 159.237 250.115 153.196C250.115 147.155 245.218 142.258 239.177 142.258C233.136 142.258 228.238 147.155 228.238 153.196C228.238 159.237 233.136 164.135 239.177 164.135Z" fill="url(#paint6_linear_2038_2579)" fill-opacity="0.5"/>
</g>
<g filter="url(#filter1_b_2038_2579)">
<path d="M257.08 142.754C259.634 142.754 261.703 140.684 261.703 138.131C261.703 135.578 259.634 133.508 257.08 133.508C254.527 133.508 252.457 135.578 252.457 138.131C252.457 140.684 254.527 142.754 257.08 142.754Z" fill="url(#paint7_linear_2038_2579)" fill-opacity="0.5"/>
</g>
<g filter="url(#filter2_b_2038_2579)">
<path d="M227.38 178.304C225.219 178.304 223.203 178.904 221.475 179.93C219.307 173.374 213.144 168.634 205.875 168.634C205.845 168.634 205.822 168.634 205.792 168.634C204.457 162.55 199.06 158 192.587 158C185.121 158 179.064 164.069 179.064 171.551C179.064 176.177 181.384 180.256 184.908 182.702C178.033 184.669 173 191.012 173 198.532C173 207.632 180.36 215 189.434 215C194.058 215 198.242 213.078 201.228 209.994C203.95 212 207.308 213.185 210.946 213.185C218.344 213.185 224.598 208.285 226.66 201.548C226.902 201.563 227.137 201.586 227.38 201.586C233.8 201.586 239 196.375 239 189.941C239 183.507 233.8 178.296 227.38 178.296V178.304Z" fill="url(#paint8_linear_2038_2579)" fill-opacity="0.5"/>
</g>
<g clip-path="url(#clip0_2038_2579)">
<path d="M224.001 71.5018C224.001 75.0941 220.867 78.0018 217.001 78.0018C214.442 78.0018 212.207 76.7274 210.984 74.8269C211.781 75.1247 212.653 75.2861 213.564 75.2861C217.43 75.2861 220.564 72.3755 220.564 68.7833C220.564 67.5701 220.205 66.432 219.582 65.4609C222.171 66.4126 224.001 68.7582 224.001 71.5018Z" fill="url(#paint9_linear_2038_2579)"/>
<path d="M220.563 68.7815C220.563 72.3737 217.429 75.2842 213.563 75.2842C212.652 75.2842 211.78 75.1229 210.983 74.8251C210.36 73.854 210 72.716 210 71.5C210 67.9105 213.134 65 217 65C217.911 65 218.783 65.1614 219.58 65.4591C220.203 66.4302 220.563 67.5683 220.563 68.7815Z" fill="url(#paint10_linear_2038_2579)"/>
</g>
<g clip-path="url(#clip1_2038_2579)">
<path d="M303.001 5.99904C303.001 7.657 301.657 8.99904 300.001 8.99904C298.904 8.99904 297.946 8.41085 297.422 7.53371C297.763 7.67113 298.137 7.74561 298.528 7.74561C300.184 7.74561 301.528 6.40229 301.528 4.74433C301.528 4.1844 301.374 3.65914 301.106 3.21094C302.216 3.65015 303.001 4.73277 303.001 5.99904Z" fill="url(#paint11_linear_2038_2579)"/>
<path d="M301.527 4.74529C301.527 6.40325 300.184 7.74657 298.527 7.74657C298.137 7.74657 297.763 7.67209 297.421 7.53467C297.154 7.08647 297 6.56122 297 6C297 4.34332 298.343 3 300 3C300.39 3 300.764 3.07449 301.106 3.2119C301.373 3.6601 301.527 4.18536 301.527 4.74529Z" fill="url(#paint12_linear_2038_2579)"/>
</g>
<g clip-path="url(#clip2_2038_2579)">
<path d="M377.126 128.232C377.126 131.825 373.992 134.732 370.126 134.732C367.567 134.732 365.332 133.458 364.109 131.557C364.906 131.855 365.778 132.017 366.689 132.017C370.555 132.017 373.689 129.106 373.689 125.514C373.689 124.301 373.33 123.163 372.707 122.191C375.296 123.143 377.126 125.489 377.126 128.232Z" fill="url(#paint13_linear_2038_2579)"/>
<path d="M373.688 125.512C373.688 129.104 370.554 132.015 366.688 132.015C365.777 132.015 364.905 131.853 364.108 131.556C363.485 130.584 363.125 129.446 363.125 128.23C363.125 124.641 366.259 121.73 370.125 121.73C371.036 121.73 371.908 121.892 372.705 122.19C373.328 123.161 373.688 124.299 373.688 125.512Z" fill="url(#paint14_linear_2038_2579)"/>
</g>
<g filter="url(#filter3_b_2038_2579)">
<path d="M228.518 81.5328C221.753 86.7244 212.526 86.0023 207.913 79.9267C207.901 79.9018 207.876 79.8769 207.864 79.852C204.178 73.8013 206.083 65.3726 212.477 60.4672C219.242 55.2756 228.468 55.9977 233.081 62.0733L233.118 62.1106C236.829 68.1614 234.924 76.6025 228.53 81.5203L228.518 81.5328Z" fill="white" fill-opacity="0.3"/>
</g>
<g filter="url(#filter4_b_2038_2579)">
<path d="M305.094 10.514C302.062 12.739 297.926 12.4296 295.858 9.82573C295.852 9.81506 295.841 9.80439 295.836 9.79372C294.183 7.20054 295.037 3.58824 297.903 1.48596C300.936 -0.739048 305.072 -0.429574 307.14 2.17427L307.157 2.19028C308.82 4.78345 307.966 8.40109 305.1 10.5087L305.094 10.514Z" fill="white" fill-opacity="0.3"/>
</g>
<g filter="url(#filter5_b_2038_2579)">
<path d="M381.643 138.263C374.878 143.455 365.651 142.733 361.038 136.657C361.026 136.632 361.001 136.607 360.989 136.582C357.303 130.532 359.208 122.103 365.602 117.198C372.367 112.006 381.593 112.728 386.206 118.804L386.243 118.841C389.954 124.892 388.049 133.333 381.655 138.251L381.643 138.263Z" fill="white" fill-opacity="0.3"/>
</g>
<path d="M300 6H238.017C235.814 6 234 7.75127 234 9.92913L234 29.5405C234 31.6959 235.791 33.4697 238.017 33.4697H240.749C240.841 34.2555 240.703 35.1985 239.9 36.119C239.578 36.4782 239.831 37.062 240.336 36.9946C241.805 36.7926 244.055 36.0292 245.708 33.4697H280.977C283.181 33.4697 284.995 31.7184 284.995 29.5405V9.92913C284.995 7.77372 283.204 6 280.977 6H300Z" fill="url(#paint15_linear_2038_2579)"/>
<g filter="url(#filter6_b_2038_2579)">
<path d="M232 15H289.287C291.324 15 293 16.7921 293 19.0206V36.3668C293 38.5724 291.345 40.3874 289.287 40.3874H286.762C286.677 41.1916 286.805 42.1565 287.547 43.0985C287.844 43.4661 287.611 44.0634 287.144 43.9945C285.786 43.7877 283.707 43.0066 282.179 40.3874H249.582C247.545 40.3874 245.869 38.5954 245.869 36.3668V19.0206C245.869 16.815 247.523 15 249.582 15H232Z" fill="url(#paint16_linear_2038_2579)" fill-opacity="0.5"/>
<path d="M286.364 40.3455L286.402 39.9874H286.762H289.287C291.093 39.9874 292.6 38.3836 292.6 36.3668V19.0206C292.6 16.9839 291.075 15.4 289.287 15.4H249.582C247.775 15.4 246.269 17.0038 246.269 19.0206V36.3668C246.269 38.4035 247.794 39.9874 249.582 39.9874H282.179H282.409L282.525 40.1859C283.98 42.6803 285.94 43.4063 287.203 43.5989C287.227 43.6023 287.232 43.5971 287.233 43.5966C287.238 43.5935 287.252 43.582 287.264 43.5534C287.291 43.4907 287.284 43.4087 287.236 43.3499L287.236 43.3499L287.233 43.3461C286.413 42.3059 286.271 41.2306 286.364 40.3455Z" stroke="url(#paint17_linear_2038_2579)" stroke-width="0.8"/>
</g>
<ellipse cx="2.37558" cy="2.37558" rx="2.37558" ry="2.37558" transform="matrix(-1 0 0 1 281.922 24.9141)" fill="white"/>
<ellipse cx="2.37558" cy="2.37558" rx="2.37558" ry="2.37558" transform="matrix(-1 0 0 1 272.418 24.9141)" fill="white"/>
<ellipse cx="2.37558" cy="2.37558" rx="2.37558" ry="2.37558" transform="matrix(-1 0 0 1 262.918 24.9141)" fill="white"/>
<path d="M386.321 219.407C388.591 219.767 389.711 222.227 388.821 224.887L367.631 287.997C366.741 290.657 364.171 292.517 361.901 292.157L307.931 283.517C305.661 283.157 304.541 280.697 305.431 278.047L326.621 214.937C327.511 212.267 330.081 210.407 332.361 210.777L386.321 219.407Z" fill="#5858D1"/>
<mask id="mask0_2038_2579" style="mask-type:luminance" maskUnits="userSpaceOnUse" x="298" y="270" width="11" height="7">
<path d="M307.061 276.107L298.121 270.047C298.491 270.297 298.931 270.477 299.421 270.557L308.361 276.617C307.871 276.537 307.431 276.367 307.061 276.107Z" fill="white"/>
</mask>
<g mask="url(#mask0_2038_2579)">
<path d="M299.421 270.545L308.361 276.605C307.871 276.525 307.431 276.355 307.061 276.095L298.121 270.035C298.491 270.285 298.931 270.465 299.421 270.545Z" fill="#616161"/>
</g>
<path d="M353.507 285.913L362.457 291.963L308.487 283.333L299.547 277.273L353.507 285.913Z" fill="url(#paint18_linear_2038_2579)"/>
<path d="M380.44 218.645L389.38 224.705L368.19 287.815L359.25 281.755L380.44 218.645Z" fill="url(#paint19_linear_2038_2579)"/>
<path d="M359.246 281.754C359.136 282.084 358.996 282.394 358.846 282.694C358.846 282.704 358.836 282.714 358.826 282.724C358.676 283.014 358.496 283.294 358.306 283.554C358.306 283.564 358.286 283.574 358.286 283.584C358.096 283.844 357.886 284.084 357.666 284.304C357.656 284.314 357.646 284.324 357.636 284.334C357.416 284.554 357.176 284.754 356.936 284.934C356.916 284.944 356.896 284.964 356.876 284.974C356.646 285.134 356.406 285.284 356.166 285.404C356.126 285.424 356.086 285.444 356.046 285.464C355.796 285.584 355.536 285.684 355.276 285.764C355.236 285.774 355.196 285.784 355.166 285.794C354.946 285.854 354.726 285.894 354.496 285.914C354.426 285.914 354.356 285.924 354.286 285.934C354.026 285.944 353.766 285.934 353.516 285.904L362.456 291.964C362.706 292.004 362.966 292.004 363.226 291.994C363.296 291.994 363.366 291.994 363.436 291.974C363.656 291.954 363.876 291.914 364.096 291.854C364.136 291.844 364.176 291.834 364.206 291.824C364.416 291.764 364.626 291.684 364.836 291.594C364.886 291.574 364.926 291.544 364.976 291.524C365.016 291.504 365.056 291.484 365.096 291.464C365.166 291.434 365.226 291.404 365.296 291.364C365.416 291.294 365.536 291.224 365.656 291.144C365.706 291.104 365.756 291.074 365.816 291.034C365.836 291.024 365.856 291.004 365.876 290.994C365.906 290.974 365.936 290.954 365.966 290.934C366.056 290.864 366.146 290.794 366.236 290.714C366.316 290.644 366.396 290.574 366.476 290.494C366.506 290.464 366.536 290.434 366.576 290.394C366.586 290.384 366.596 290.374 366.616 290.354C366.646 290.324 366.676 290.294 366.706 290.264C366.776 290.194 366.846 290.114 366.916 290.034C366.986 289.954 367.046 289.874 367.116 289.794C367.156 289.744 367.196 289.684 367.236 289.634C367.236 289.624 367.256 289.614 367.256 289.604C367.266 289.584 367.286 289.564 367.296 289.554C367.356 289.464 367.416 289.384 367.476 289.294C367.536 289.204 367.596 289.104 367.646 289.014C367.686 288.934 367.736 288.864 367.776 288.784C367.776 288.774 367.786 288.764 367.796 288.754C367.796 288.734 367.816 288.724 367.816 288.714C367.876 288.594 367.936 288.484 367.986 288.364C368.046 288.224 368.106 288.084 368.156 287.944C368.166 287.904 368.186 287.864 368.196 287.824L359.256 281.764L359.246 281.754Z" fill="url(#paint20_linear_2038_2579)"/>
<g filter="url(#filter7_b_2038_2579)">
<path d="M377.93 213.169C380.2 213.529 381.32 215.989 380.43 218.649L359.24 281.759C358.35 284.419 355.78 286.279 353.51 285.919L299.54 277.279C297.27 276.919 296.15 274.459 297.04 271.809L318.23 208.699C319.12 206.029 321.69 204.169 323.97 204.539L377.93 213.169Z" fill="url(#paint21_linear_2038_2579)" fill-opacity="0.8"/>
</g>
<mask id="mask1_2038_2579" style="mask-type:luminance" maskUnits="userSpaceOnUse" x="333" y="225" width="7" height="5">
<path d="M333.758 225.754L339.478 229.544C339.618 229.634 339.748 229.744 339.868 229.874L334.148 226.084C334.028 225.954 333.898 225.844 333.758 225.754Z" fill="white"/>
</mask>
<g mask="url(#mask1_2038_2579)">
<path d="M333.758 225.754L339.478 229.544C339.478 229.544 339.558 229.604 339.598 229.634L333.878 225.844C333.878 225.844 333.798 225.784 333.758 225.754Z" fill="#5B5B5B"/>
<path d="M333.879 225.844L339.599 229.634C339.599 229.634 339.689 229.704 339.729 229.744L334.009 225.954C334.009 225.954 333.919 225.874 333.879 225.844Z" fill="#5E5E5E"/>
<path d="M334.008 225.953L339.728 229.743C339.728 229.743 339.818 229.823 339.858 229.863L334.138 226.073C334.138 226.073 334.058 225.993 334.008 225.953Z" fill="#616161"/>
<path d="M334.137 226.074L339.857 229.864L339.867 229.874L334.147 226.084L334.137 226.074Z" fill="#636363"/>
</g>
<path d="M323.753 258.155C323.193 258.395 322.672 258.455 322.192 258.375C321.872 258.325 321.572 258.205 321.312 258.035L327.032 261.825C327.292 261.995 327.593 262.115 327.913 262.165C328.383 262.235 328.913 262.175 329.473 261.945L323.753 258.155Z" fill="url(#paint22_linear_2038_2579)"/>
<path d="M355.205 246.166L347.535 238.016L339.865 229.876L334.145 226.086L341.815 234.236L349.485 242.376L355.205 246.166Z" fill="url(#paint23_linear_2038_2579)"/>
<path d="M347.634 248.086L335.694 253.116L323.754 258.156L329.474 261.946L341.414 256.906L353.354 251.876L347.634 248.086Z" fill="url(#paint24_linear_2038_2579)"/>
<path d="M355.884 248.133C355.884 247.963 355.884 247.793 355.864 247.633C355.864 247.623 355.864 247.613 355.864 247.603C355.864 247.563 355.844 247.533 355.844 247.493C355.834 247.413 355.814 247.323 355.794 247.243V247.223C355.794 247.203 355.784 247.183 355.774 247.163C355.754 247.103 355.744 247.043 355.714 246.983C355.694 246.943 355.684 246.903 355.664 246.863C355.664 246.843 355.654 246.833 355.644 246.813C355.644 246.803 355.644 246.793 355.624 246.773C355.594 246.713 355.564 246.653 355.524 246.593C355.504 246.563 355.484 246.533 355.464 246.503C355.464 246.493 355.454 246.483 355.444 246.473C355.444 246.463 355.434 246.453 355.424 246.433C355.394 246.383 355.354 246.333 355.314 246.293C355.284 246.253 355.244 246.213 355.214 246.173L349.494 242.383C349.584 242.473 349.664 242.573 349.734 242.683C349.734 242.693 349.744 242.703 349.754 242.713C349.814 242.813 349.874 242.913 349.924 243.023C349.924 243.043 349.934 243.053 349.944 243.073C349.984 243.173 350.024 243.273 350.054 243.373C350.054 243.393 350.064 243.413 350.074 243.433C350.094 243.523 350.114 243.613 350.134 243.703C350.134 243.743 350.154 243.773 350.154 243.813C350.154 243.823 350.154 243.843 350.154 243.853C350.174 244.013 350.184 244.183 350.174 244.353C350.174 244.403 350.174 244.443 350.174 244.493C350.164 244.673 350.144 244.853 350.104 245.043C350.074 245.193 350.034 245.333 349.984 245.473C349.944 245.603 349.894 245.723 349.844 245.843C349.834 245.863 349.824 245.893 349.814 245.913C349.764 246.033 349.704 246.153 349.644 246.263C349.644 246.263 349.644 246.283 349.634 246.283C349.564 246.403 349.484 246.523 349.404 246.643C349.404 246.643 349.404 246.643 349.394 246.653C349.314 246.773 349.224 246.883 349.134 246.993C349.134 246.993 349.114 247.013 349.114 247.023C349.024 247.123 348.924 247.223 348.834 247.323C348.824 247.333 348.814 247.343 348.794 247.353C348.694 247.443 348.594 247.533 348.484 247.613C348.464 247.623 348.454 247.633 348.434 247.653C348.324 247.733 348.204 247.813 348.084 247.883C348.074 247.883 348.064 247.893 348.054 247.903C347.934 247.973 347.804 248.043 347.664 248.093L353.384 251.883C353.384 251.883 353.444 251.853 353.484 251.843C353.584 251.793 353.684 251.743 353.774 251.693C353.784 251.693 353.794 251.683 353.804 251.673C353.884 251.623 353.974 251.573 354.054 251.513C354.084 251.493 354.124 251.463 354.154 251.443C354.174 251.433 354.184 251.423 354.204 251.403C354.224 251.393 354.234 251.383 354.254 251.373C354.314 251.323 354.374 251.273 354.434 251.223C354.464 251.203 354.494 251.173 354.514 251.143C354.524 251.133 354.544 251.123 354.554 251.113C354.564 251.103 354.584 251.093 354.594 251.073C354.644 251.023 354.694 250.973 354.744 250.923C354.774 250.893 354.804 250.853 354.844 250.813C354.844 250.813 354.864 250.793 354.864 250.783C354.864 250.783 354.874 250.773 354.884 250.763C354.934 250.713 354.974 250.653 355.014 250.603C355.054 250.553 355.084 250.503 355.124 250.453C355.124 250.453 355.124 250.453 355.134 250.443C355.174 250.383 355.214 250.323 355.254 250.263C355.284 250.203 355.324 250.153 355.354 250.093C355.354 250.093 355.354 250.073 355.364 250.073C355.364 250.073 355.364 250.073 355.364 250.063C355.404 249.993 355.444 249.913 355.484 249.843C355.504 249.803 355.514 249.763 355.534 249.723C355.544 249.703 355.554 249.673 355.564 249.653C355.564 249.633 355.584 249.613 355.594 249.593C355.634 249.493 355.674 249.393 355.704 249.283C355.754 249.143 355.794 249.003 355.824 248.853C355.864 248.673 355.884 248.493 355.894 248.303C355.894 248.253 355.894 248.213 355.894 248.163L355.884 248.133Z" fill="url(#paint25_linear_2038_2579)"/>
<g filter="url(#filter8_b_2038_2579)">
<path d="M332.884 225.423C333.354 225.493 333.794 225.713 334.144 226.093L341.814 234.233L349.484 242.373C350.954 243.943 349.924 247.113 347.634 248.083L335.694 253.123L323.754 258.163C323.194 258.403 322.674 258.463 322.194 258.383C320.714 258.153 319.804 256.553 320.424 254.643L324.694 241.453L328.964 228.273C329.584 226.353 331.394 225.193 332.864 225.423H332.884Z" fill="url(#paint26_linear_2038_2579)" fill-opacity="0.6"/>
</g>
<path d="M289.488 153.86C289.32 153.556 289.257 153.264 289.275 152.987C289.285 152.803 289.336 152.626 289.418 152.469L287.593 155.928C287.511 156.085 287.46 156.262 287.45 156.447C287.437 156.717 287.501 157.014 287.663 157.319L289.488 153.86Z" fill="url(#paint27_linear_2038_2579)"/>
<path d="M298.074 171.018L302.262 166.205L306.444 161.393L308.27 157.934L304.082 162.746L299.899 167.559L298.074 171.018Z" fill="url(#paint28_linear_2038_2579)"/>
<path d="M296.554 166.834L293.023 160.347L289.487 153.86L287.662 157.32L291.198 163.807L294.728 170.294L296.554 166.834Z" fill="url(#paint29_linear_2038_2579)"/>
<path d="M296.994 171.516C297.09 171.506 297.187 171.497 297.276 171.476C297.282 171.476 297.288 171.475 297.293 171.475C297.316 171.472 297.332 171.459 297.354 171.457C297.399 171.447 297.449 171.43 297.493 171.415L297.505 171.413C297.516 171.412 297.527 171.405 297.538 171.399C297.571 171.384 297.604 171.375 297.636 171.354C297.658 171.341 297.68 171.333 297.702 171.319C297.713 171.318 297.718 171.312 297.729 171.305C297.734 171.305 297.74 171.304 297.75 171.291C297.783 171.271 297.815 171.251 297.847 171.225C297.863 171.211 297.879 171.198 297.894 171.185C297.9 171.185 297.905 171.179 297.91 171.172C297.916 171.172 297.921 171.166 297.932 171.159C297.959 171.139 297.985 171.113 298.005 171.088C298.026 171.069 298.046 171.044 298.067 171.025L299.893 167.565C299.847 167.622 299.795 167.673 299.736 167.719C299.731 167.719 299.726 167.725 299.72 167.732C299.667 167.771 299.614 167.811 299.554 167.846C299.543 167.847 299.538 167.853 299.527 167.86C299.473 167.888 299.418 167.916 299.363 167.939C299.352 167.94 299.341 167.947 299.33 167.954C299.28 167.97 299.23 167.987 299.18 168.003C299.158 168.006 299.142 168.019 299.119 168.021C299.113 168.021 299.102 168.023 299.096 168.023C299.007 168.044 298.911 168.059 298.814 168.063C298.786 168.066 298.763 168.068 298.735 168.071C298.632 168.075 298.529 168.074 298.419 168.062C298.332 168.054 298.25 168.039 298.168 168.019C298.092 168.003 298.021 167.982 297.95 167.96C297.938 167.956 297.921 167.952 297.909 167.947C297.838 167.926 297.766 167.898 297.701 167.871C297.701 167.871 297.689 167.872 297.689 167.866C297.617 167.833 297.544 167.794 297.471 167.756C297.471 167.756 297.471 167.756 297.465 167.751C297.393 167.712 297.325 167.667 297.258 167.623C297.258 167.623 297.245 167.612 297.239 167.613C297.178 167.568 297.115 167.517 297.053 167.471C297.047 167.466 297.041 167.461 297.034 167.45C296.977 167.399 296.921 167.347 296.869 167.289C296.862 167.278 296.856 167.273 296.843 167.263C296.792 167.205 296.74 167.142 296.693 167.078C296.693 167.072 296.686 167.067 296.68 167.062C296.634 166.998 296.586 166.928 296.55 166.851L294.725 170.311C294.725 170.311 294.745 170.343 294.753 170.365C294.787 170.419 294.821 170.473 294.855 170.521C294.855 170.527 294.862 170.532 294.868 170.537C294.901 170.58 294.934 170.628 294.973 170.67C294.986 170.686 295.005 170.707 295.018 170.722C295.025 170.733 295.031 170.738 295.044 170.749C295.05 170.759 295.057 170.764 295.063 170.775C295.095 170.806 295.127 170.838 295.159 170.869C295.172 170.885 295.19 170.9 295.209 170.91C295.215 170.915 295.222 170.926 295.228 170.931C295.234 170.936 295.241 170.947 295.253 170.951C295.284 170.977 295.315 171.002 295.346 171.028C295.365 171.043 295.39 171.058 295.415 171.078C295.415 171.078 295.427 171.088 295.433 171.088C295.433 171.088 295.439 171.093 295.445 171.098C295.476 171.124 295.513 171.143 295.543 171.163C295.574 171.183 295.604 171.197 295.635 171.217C295.635 171.217 295.635 171.217 295.641 171.222C295.677 171.241 295.713 171.26 295.75 171.28C295.786 171.293 295.816 171.313 295.852 171.327C295.852 171.327 295.863 171.325 295.864 171.331C295.864 171.331 295.864 171.331 295.869 171.331C295.911 171.349 295.959 171.367 296.001 171.386C296.025 171.395 296.048 171.399 296.072 171.408C296.084 171.412 296.101 171.416 296.113 171.421C296.125 171.42 296.137 171.43 296.149 171.434C296.208 171.451 296.267 171.468 296.331 171.479C296.413 171.5 296.495 171.514 296.582 171.523C296.686 171.535 296.789 171.536 296.898 171.531C296.926 171.529 296.949 171.526 296.977 171.523L296.994 171.516Z" fill="url(#paint30_linear_2038_2579)"/>
<path d="M308.573 157.181C308.56 157.452 308.46 157.714 308.264 157.934L304.082 162.746L299.9 167.559C299.092 168.481 297.236 168.077 296.556 166.833L293.02 160.346L289.484 153.859C289.316 153.555 289.252 153.264 289.27 152.987C289.317 152.134 290.173 151.527 291.291 151.771L299.015 153.445L306.734 155.119C307.858 155.362 308.619 156.323 308.571 157.17L308.573 157.181Z" fill="url(#paint31_linear_2038_2579)"/>
<path d="M33.4276 190.556L20.6427 206.123L-1.74971 186.467L11.04 170.902L33.4276 190.556Z" fill="url(#paint32_linear_2038_2579)"/>
<path d="M11.0391 170.898L-1.75064 186.463L-24.0502 187.984L-11.2623 172.424L11.0391 170.898Z" fill="url(#paint33_linear_2038_2579)"/>
<path d="M33.5162 211.737L20.7283 227.297L20.6403 206.121L33.4252 190.555L33.5162 211.737Z" fill="url(#paint34_linear_2038_2579)"/>
<path d="M11.259 223.299L-1.5241 238.86L-34.5271 209.888L-21.7393 194.328L11.259 223.299Z" fill="url(#paint35_linear_2038_2579)"/>
<path d="M44.125 221.055L31.3419 236.616L-1.52647 238.863L11.2566 223.301L44.125 221.055Z" fill="url(#paint36_linear_2038_2579)"/>
<path d="M44.1276 221.053L11.2593 223.3L-21.739 194.329L-21.8737 163.111L10.9946 160.864L43.9929 189.835L44.1276 221.053ZM-11.175 193.602L11.2173 213.259L33.5169 211.737L33.4241 190.56L11.0318 170.904L-11.2678 172.425L-11.175 193.602Z" fill="url(#paint37_linear_2038_2579)"/>
<g filter="url(#filter9_b_2038_2579)">
<path d="M-48.645 193.1C-36.956 159.667 -3.2275 140.722 26.664 150.77C26.7638 150.827 26.9066 150.854 27.0063 150.911C53.6156 163.026 66.2072 196.237 55.1556 227.832C43.4665 261.265 9.7379 280.209 -20.1536 270.161L-20.3678 270.12C-47.0631 258.062 -59.683 224.808 -48.6597 193.171L-48.645 193.1Z" fill="white" fill-opacity="0.3"/>
</g>
<g filter="url(#filter10_b_2038_2579)">
<path d="M277.129 180.868C288.087 132.759 322.591 109.462 364.952 128.934C365.097 129.033 365.296 129.095 365.441 129.194C403.627 151.257 425.82 202.679 415.456 248.141C404.498 296.25 361.243 319.443 318.882 299.971L318.583 299.877C292.629 292.229 281.129 248.141 277.129 180.868Z" fill="white" fill-opacity="0.3"/>
</g>
<defs>
<filter id="filter0_b_2038_2579" x="224.238" y="138.258" width="29.875" height="29.875" filterUnits="userSpaceOnUse" color-interpolation-filters="sRGB">
<feFlood flood-opacity="0" result="BackgroundImageFix"/>
<feGaussianBlur in="BackgroundImageFix" stdDeviation="2"/>
<feComposite in2="SourceAlpha" operator="in" result="effect1_backgroundBlur_2038_2579"/>
<feBlend mode="normal" in="SourceGraphic" in2="effect1_backgroundBlur_2038_2579" result="shape"/>
</filter>
<filter id="filter1_b_2038_2579" x="248.457" y="129.508" width="17.2461" height="17.2461" filterUnits="userSpaceOnUse" color-interpolation-filters="sRGB">
<feFlood flood-opacity="0" result="BackgroundImageFix"/>
<feGaussianBlur in="BackgroundImageFix" stdDeviation="2"/>
<feComposite in2="SourceAlpha" operator="in" result="effect1_backgroundBlur_2038_2579"/>
<feBlend mode="normal" in="SourceGraphic" in2="effect1_backgroundBlur_2038_2579" result="shape"/>
</filter>
<filter id="filter2_b_2038_2579" x="169" y="154" width="74" height="65" filterUnits="userSpaceOnUse" color-interpolation-filters="sRGB">
<feFlood flood-opacity="0" result="BackgroundImageFix"/>
<feGaussianBlur in="BackgroundImageFix" stdDeviation="2"/>
<feComposite in2="SourceAlpha" operator="in" result="effect1_backgroundBlur_2038_2579"/>
<feBlend mode="normal" in="SourceGraphic" in2="effect1_backgroundBlur_2038_2579" result="shape"/>
</filter>
<filter id="filter3_b_2038_2579" x="200.257" y="51.2571" width="40.4857" height="39.4857" filterUnits="userSpaceOnUse" color-interpolation-filters="sRGB">
<feFlood flood-opacity="0" result="BackgroundImageFix"/>
<feGaussianBlur in="BackgroundImageFix" stdDeviation="2.87143"/>
<feComposite in2="SourceAlpha" operator="in" result="effect1_backgroundBlur_2038_2579"/>
<feBlend mode="normal" in="SourceGraphic" in2="effect1_backgroundBlur_2038_2579" result="shape"/>
</filter>
<filter id="filter4_b_2038_2579" x="289.257" y="-5.74286" width="24.4857" height="23.4857" filterUnits="userSpaceOnUse" color-interpolation-filters="sRGB">
<feFlood flood-opacity="0" result="BackgroundImageFix"/>
<feGaussianBlur in="BackgroundImageFix" stdDeviation="2.87143"/>
<feComposite in2="SourceAlpha" operator="in" result="effect1_backgroundBlur_2038_2579"/>
<feBlend mode="normal" in="SourceGraphic" in2="effect1_backgroundBlur_2038_2579" result="shape"/>
</filter>
<filter id="filter5_b_2038_2579" x="353.382" y="107.988" width="40.4857" height="39.4857" filterUnits="userSpaceOnUse" color-interpolation-filters="sRGB">
<feFlood flood-opacity="0" result="BackgroundImageFix"/>
<feGaussianBlur in="BackgroundImageFix" stdDeviation="2.87143"/>
<feComposite in2="SourceAlpha" operator="in" result="effect1_backgroundBlur_2038_2579"/>
<feBlend mode="normal" in="SourceGraphic" in2="effect1_backgroundBlur_2038_2579" result="shape"/>
</filter>
<filter id="filter6_b_2038_2579" x="228" y="11" width="69" height="37" filterUnits="userSpaceOnUse" color-interpolation-filters="sRGB">
<feFlood flood-opacity="0" result="BackgroundImageFix"/>
<feGaussianBlur in="BackgroundImageFix" stdDeviation="2"/>
<feComposite in2="SourceAlpha" operator="in" result="effect1_backgroundBlur_2038_2579"/>
<feBlend mode="normal" in="SourceGraphic" in2="effect1_backgroundBlur_2038_2579" result="shape"/>
</filter>
<filter id="filter7_b_2038_2579" x="292.734" y="200.492" width="92" height="89.4727" filterUnits="userSpaceOnUse" color-interpolation-filters="sRGB">
<feFlood flood-opacity="0" result="BackgroundImageFix"/>
<feGaussianBlur in="BackgroundImageFix" stdDeviation="2"/>
<feComposite in2="SourceAlpha" operator="in" result="effect1_backgroundBlur_2038_2579"/>
<feBlend mode="normal" in="SourceGraphic" in2="effect1_backgroundBlur_2038_2579" result="shape"/>
</filter>
<filter id="filter8_b_2038_2579" x="316.227" y="221.395" width="37.9414" height="41.0234" filterUnits="userSpaceOnUse" color-interpolation-filters="sRGB">
<feFlood flood-opacity="0" result="BackgroundImageFix"/>
<feGaussianBlur in="BackgroundImageFix" stdDeviation="2"/>
<feComposite in2="SourceAlpha" operator="in" result="effect1_backgroundBlur_2038_2579"/>
<feBlend mode="normal" in="SourceGraphic" in2="effect1_backgroundBlur_2038_2579" result="shape"/>
</filter>
<filter id="filter9_b_2038_2579" x="-55.6445" y="145.078" width="117.809" height="130.777" filterUnits="userSpaceOnUse" color-interpolation-filters="sRGB">
<feFlood flood-opacity="0" result="BackgroundImageFix"/>
<feGaussianBlur in="BackgroundImageFix" stdDeviation="1.5"/>
<feComposite in2="SourceAlpha" operator="in" result="effect1_backgroundBlur_2038_2579"/>
<feBlend mode="normal" in="SourceGraphic" in2="effect1_backgroundBlur_2038_2579" result="shape"/>
</filter>
<filter id="filter10_b_2038_2579" x="274.129" y="119.055" width="146.871" height="190.809" filterUnits="userSpaceOnUse" color-interpolation-filters="sRGB">
<feFlood flood-opacity="0" result="BackgroundImageFix"/>
<feGaussianBlur in="BackgroundImageFix" stdDeviation="1.5"/>
<feComposite in2="SourceAlpha" operator="in" result="effect1_backgroundBlur_2038_2579"/>
<feBlend mode="normal" in="SourceGraphic" in2="effect1_backgroundBlur_2038_2579" result="shape"/>
</filter>
<linearGradient id="paint0_linear_2038_2579" x1="191.141" y1="103.18" x2="191.141" y2="197.446" gradientUnits="userSpaceOnUse">
<stop stop-color="#494949"/>
<stop offset="0.0001" stop-color="#C9C4FF"/>
<stop offset="1" stop-color="white"/>
</linearGradient>
<linearGradient id="paint1_linear_2038_2579" x1="191.144" y1="193.906" x2="191.144" y2="220.619" gradientUnits="userSpaceOnUse">
<stop stop-color="#494949"/>
<stop offset="0.0001" stop-color="#C9C4FF"/>
<stop offset="1" stop-color="white"/>
</linearGradient>
<linearGradient id="paint2_linear_2038_2579" x1="234.079" y1="184.346" x2="201.417" y2="100.889" gradientUnits="userSpaceOnUse">
<stop stop-color="#7273FF"/>
<stop offset="1" stop-color="#B8B9FF"/>
</linearGradient>
<linearGradient id="paint3_linear_2038_2579" x1="270.331" y1="222.202" x2="269.056" y2="239.051" gradientUnits="userSpaceOnUse">
<stop stop-color="#7273FF"/>
<stop offset="1" stop-color="#B8B9FF"/>
</linearGradient>
<linearGradient id="paint4_linear_2038_2579" x1="257.741" y1="198.617" x2="256.339" y2="214.994" gradientUnits="userSpaceOnUse">
<stop stop-color="#7273FF"/>
<stop offset="1" stop-color="#B8B9FF"/>
</linearGradient>
<linearGradient id="paint5_linear_2038_2579" x1="259.142" y1="207.905" x2="258.506" y2="217.469" gradientUnits="userSpaceOnUse">
<stop stop-color="#5E5FFF"/>
<stop offset="1" stop-color="#9494FF"/>
</linearGradient>
<linearGradient id="paint6_linear_2038_2579" x1="244.465" y1="144.311" x2="226.244" y2="148.079" gradientUnits="userSpaceOnUse">
<stop stop-color="white"/>
<stop offset="1" stop-color="#D7D7FF"/>
</linearGradient>
<linearGradient id="paint7_linear_2038_2579" x1="259.315" y1="134.376" x2="251.614" y2="135.968" gradientUnits="userSpaceOnUse">
<stop stop-color="white"/>
<stop offset="1" stop-color="#D7D7FF"/>
</linearGradient>
<linearGradient id="paint8_linear_2038_2579" x1="221.955" y1="163.35" x2="167.74" y2="176.332" gradientUnits="userSpaceOnUse">
<stop stop-color="white"/>
<stop offset="1" stop-color="#D7D7FF"/>
</linearGradient>
<linearGradient id="paint9_linear_2038_2579" x1="223.765" y1="71.7419" x2="212.77" y2="76.4703" gradientUnits="userSpaceOnUse">
<stop stop-color="#5E5FFF"/>
<stop offset="1" stop-color="#9494FF"/>
</linearGradient>
<linearGradient id="paint10_linear_2038_2579" x1="215.281" y1="65" x2="215.281" y2="75.2842" gradientUnits="userSpaceOnUse">
<stop stop-color="#494949"/>
<stop offset="0.0001" stop-color="#C9C4FF"/>
<stop offset="1" stop-color="white"/>
</linearGradient>
<linearGradient id="paint11_linear_2038_2579" x1="302.899" y1="6.10984" x2="298.083" y2="8.0329" gradientUnits="userSpaceOnUse">
<stop stop-color="#5E5FFF"/>
<stop offset="1" stop-color="#9494FF"/>
</linearGradient>
<linearGradient id="paint12_linear_2038_2579" x1="299.263" y1="3" x2="299.263" y2="7.74657" gradientUnits="userSpaceOnUse">
<stop stop-color="#494949"/>
<stop offset="0.0001" stop-color="#C9C4FF"/>
<stop offset="1" stop-color="white"/>
</linearGradient>
<linearGradient id="paint13_linear_2038_2579" x1="376.89" y1="128.472" x2="365.895" y2="133.201" gradientUnits="userSpaceOnUse">
<stop stop-color="#5E5FFF"/>
<stop offset="1" stop-color="#9494FF"/>
</linearGradient>
<linearGradient id="paint14_linear_2038_2579" x1="368.406" y1="121.73" x2="368.406" y2="132.015" gradientUnits="userSpaceOnUse">
<stop stop-color="#494949"/>
<stop offset="0.0001" stop-color="#C9C4FF"/>
<stop offset="1" stop-color="white"/>
</linearGradient>
<linearGradient id="paint15_linear_2038_2579" x1="286.402" y1="12.6499" x2="254.692" y2="48.8396" gradientUnits="userSpaceOnUse">
<stop stop-color="#7273FF"/>
<stop offset="1" stop-color="#B8B9FF"/>
</linearGradient>
<linearGradient id="paint16_linear_2038_2579" x1="247.754" y1="17.7219" x2="292.305" y2="37.1009" gradientUnits="userSpaceOnUse">
<stop stop-color="white"/>
<stop offset="1" stop-color="#D7D7FF"/>
</linearGradient>
<linearGradient id="paint17_linear_2038_2579" x1="286.087" y1="15" x2="271.481" y2="33.6282" gradientUnits="userSpaceOnUse">
<stop stop-color="white"/>
<stop offset="1" stop-color="white" stop-opacity="0"/>
</linearGradient>
<linearGradient id="paint18_linear_2038_2579" x1="361.316" y1="284.631" x2="346.135" y2="311.565" gradientUnits="userSpaceOnUse">
<stop stop-color="#3A3BBA"/>
<stop offset="1" stop-color="#9494FF"/>
</linearGradient>
<linearGradient id="paint19_linear_2038_2579" x1="388.541" y1="230.689" x2="351.872" y2="242.117" gradientUnits="userSpaceOnUse">
<stop stop-color="#7273FF"/>
<stop offset="1" stop-color="#B8B9FF"/>
</linearGradient>
<linearGradient id="paint20_linear_2038_2579" x1="367.787" y1="283.538" x2="358.229" y2="293.336" gradientUnits="userSpaceOnUse">
<stop stop-color="#7273FF"/>
<stop offset="1" stop-color="#B8B9FF"/>
</linearGradient>
<linearGradient id="paint21_linear_2038_2579" x1="326.353" y1="238.646" x2="388.692" y2="227.962" gradientUnits="userSpaceOnUse">
<stop stop-color="#F1F1FF"/>
<stop offset="1" stop-color="#CECFFF"/>
</linearGradient>
<linearGradient id="paint22_linear_2038_2579" x1="329.325" y1="260.117" x2="324.408" y2="264.115" gradientUnits="userSpaceOnUse">
<stop stop-color="#3A3BBA"/>
<stop offset="1" stop-color="#9494FF"/>
</linearGradient>
<linearGradient id="paint23_linear_2038_2579" x1="354.618" y1="229.582" x2="336.628" y2="243.082" gradientUnits="userSpaceOnUse">
<stop stop-color="#7273FF"/>
<stop offset="1" stop-color="#B8B9FF"/>
</linearGradient>
<linearGradient id="paint24_linear_2038_2579" x1="352.817" y1="255.028" x2="336.199" y2="269.731" gradientUnits="userSpaceOnUse">
<stop stop-color="#3A3BBA"/>
<stop offset="1" stop-color="#6565B4"/>
</linearGradient>
<linearGradient id="paint25_linear_2038_2579" x1="355.665" y1="244.037" x2="347.726" y2="248.958" gradientUnits="userSpaceOnUse">
<stop stop-color="#7273FF"/>
<stop offset="1" stop-color="#B8B9FF"/>
</linearGradient>
<linearGradient id="paint26_linear_2038_2579" x1="349.625" y1="241.933" x2="323.362" y2="251.799" gradientUnits="userSpaceOnUse">
<stop stop-color="#5E5FFF"/>
<stop offset="1" stop-color="#9494FF"/>
</linearGradient>
<linearGradient id="paint27_linear_2038_2579" x1="288.691" y1="157.132" x2="286.145" y2="154.569" gradientUnits="userSpaceOnUse">
<stop stop-color="#3A3BBA"/>
<stop offset="1" stop-color="#9494FF"/>
</linearGradient>
<linearGradient id="paint28_linear_2038_2579" x1="307.447" y1="169.745" x2="298.77" y2="160.306" gradientUnits="userSpaceOnUse">
<stop stop-color="#7273FF"/>
<stop offset="1" stop-color="#B8B9FF"/>
</linearGradient>
<linearGradient id="paint29_linear_2038_2579" x1="292.91" y1="170.168" x2="283.627" y2="161.576" gradientUnits="userSpaceOnUse">
<stop stop-color="#3A3BBA"/>
<stop offset="1" stop-color="#6565B4"/>
</linearGradient>
<linearGradient id="paint30_linear_2038_2579" x1="299.305" y1="171.16" x2="296.063" y2="166.935" gradientUnits="userSpaceOnUse">
<stop stop-color="#7273FF"/>
<stop offset="1" stop-color="#B8B9FF"/>
</linearGradient>
<linearGradient id="paint31_linear_2038_2579" x1="300.157" y1="167.614" x2="293.072" y2="153.276" gradientUnits="userSpaceOnUse">
<stop stop-color="#5E5FFF"/>
<stop offset="1" stop-color="#9494FF"/>
</linearGradient>
<linearGradient id="paint32_linear_2038_2579" x1="10.7551" y1="201.787" x2="11.3582" y2="173.976" gradientUnits="userSpaceOnUse">
<stop stop-color="#5E5FFF"/>
<stop offset="1" stop-color="#9494FF"/>
</linearGradient>
<linearGradient id="paint33_linear_2038_2579" x1="5.97878" y1="184.193" x2="-18.9899" y2="174.689" gradientUnits="userSpaceOnUse">
<stop stop-color="#494949"/>
<stop offset="0.0001" stop-color="#C9C4FF"/>
<stop offset="1" stop-color="white"/>
</linearGradient>
<linearGradient id="paint34_linear_2038_2579" x1="20.4078" y1="226.421" x2="8.37739" y2="203.876" gradientUnits="userSpaceOnUse">
<stop stop-color="#3A3BBA"/>
<stop offset="1" stop-color="#9494FF"/>
</linearGradient>
<linearGradient id="paint35_linear_2038_2579" x1="-17.5728" y1="232.084" x2="-15.1871" y2="199.163" gradientUnits="userSpaceOnUse">
<stop stop-color="#5E5FFF"/>
<stop offset="1" stop-color="#9494FF"/>
</linearGradient>
<linearGradient id="paint36_linear_2038_2579" x1="38.2764" y1="236.421" x2="4.32216" y2="223.497" gradientUnits="userSpaceOnUse">
<stop stop-color="#494949"/>
<stop offset="0.0001" stop-color="#C9C4FF"/>
<stop offset="1" stop-color="white"/>
</linearGradient>
<linearGradient id="paint37_linear_2038_2579" x1="49.5834" y1="206.72" x2="-27.3296" y2="177.445" gradientUnits="userSpaceOnUse">
<stop stop-color="#494949"/>
<stop offset="0.0001" stop-color="#C9C4FF"/>
<stop offset="1" stop-color="white"/>
</linearGradient>
<clipPath id="clip0_2038_2579">
<rect width="14" height="13" fill="white" transform="translate(210 65)"/>
</clipPath>
<clipPath id="clip1_2038_2579">
<rect width="6" height="6" fill="white" transform="translate(297 3)"/>
</clipPath>
<clipPath id="clip2_2038_2579">
<rect width="14" height="13" fill="white" transform="translate(363.125 121.73)"/>
</clipPath>
</defs>
</svg>
