<svg width="117" height="174" viewBox="0 0 117 174" fill="none" xmlns="http://www.w3.org/2000/svg">
<g filter="url(#filter0_b_2034_2574)">
<path d="M7.41668 100.608C11.7701 100.608 15.8332 101.808 19.316 103.859C23.6846 90.7484 36.1033 81.2687 50.752 81.2687C50.8131 81.2687 50.859 81.2687 50.9201 81.2687C53.6085 69.0999 64.4843 60 77.5292 60C92.5752 60 104.78 72.1383 104.78 87.1024C104.78 96.3542 100.106 104.512 93.0029 109.404C106.857 113.339 117 126.024 117 141.064C117 159.264 102.168 174 83.8837 174C74.5659 174 66.134 170.156 60.1157 163.989C54.6319 167.999 47.8651 170.369 40.533 170.369C25.6246 170.369 13.0226 160.57 8.86781 147.095C8.37901 147.126 7.90548 147.171 7.41668 147.171C-5.5213 147.171 -16 136.749 -16 123.882C-16 111.014 -5.5213 100.593 7.41668 100.593V100.608Z" fill="url(#paint0_linear_2034_2574)" fill-opacity="0.5"/>
</g>
<path d="M56.5067 105.07C56.1053 112.262 56.5435 119.125 58.3608 125.425C59.6231 129.783 62.1178 133.692 65.5311 136.681L78.4481 148.011C80.3351 149.664 83.2938 148.343 83.31 145.843C83.3864 134.673 80.7805 111.43 58.766 103.554C57.6979 103.173 56.5721 103.939 56.5067 105.07Z" fill="url(#paint1_linear_2034_2574)"/>
<g filter="url(#filter1_b_2034_2574)">
<path d="M86.1241 142.124C85.3771 141.123 84.3973 140.4 83.3168 139.96C85.6544 136.651 85.7556 132.13 83.2421 128.763C83.2316 128.749 83.2237 128.739 83.2133 128.725C85.6173 125.968 85.8939 121.868 83.6555 118.87C81.0738 115.411 76.1214 114.739 72.5979 117.37C70.4194 118.996 69.3004 121.504 69.3673 123.997C66.0636 121.504 61.3363 121.402 57.7948 124.046C53.5093 127.245 52.5844 133.244 55.7218 137.447C57.3206 139.589 59.6725 140.852 62.1575 141.151C62.1541 143.116 62.7571 145.088 64.0152 146.774C66.5733 150.201 71.043 151.375 74.9289 149.961C75.0056 150.079 75.0761 150.196 75.16 150.308C77.38 153.282 81.632 153.859 84.6619 151.597C87.6918 149.335 88.3477 145.095 86.1277 142.121L86.1241 142.124Z" fill="url(#paint2_linear_2034_2574)" fill-opacity="0.5"/>
</g>
<path d="M10.3 0.836796C7.17861 2.38424 5.55412 5.93869 4.43733 9.36805C4.09869 10.3905 3.83246 11.4313 3.6024 12.4904C2.79233 16.2922 2.29003 20.1584 1.83305 24.0158C1.37607 27.8731 0.648234 31.4669 0.62655 35.1808C0.625164 35.5884 0.52232 36.5301 0.901755 36.8303C1.81419 37.5581 5.29462 31.6457 6.00295 31.1227C7.61944 29.9235 9.20896 28.6607 10.9156 27.5795C14.2019 25.4981 17.6053 23.5803 21.1076 21.8982C24.4738 20.2791 27.9479 18.8778 31.5027 17.7486C33.2801 17.1839 35.0754 16.6827 36.8976 16.2541C38.3662 15.9058 41.3005 16.106 42.3188 14.9863C39.4225 11.6338 35.3704 9.83555 31.7369 7.468C27.9589 5.00031 24.0079 2.76756 19.7466 1.24937C17.6566 0.499467 15.4574 -0.0786928 13.2557 0.0678163C12.1412 0.145554 11.171 0.414009 10.309 0.836827L10.3 0.836796Z" fill="url(#paint3_linear_2034_2574)"/>
<path d="M79.7448 80.5271C55.8107 104.976 33.3897 105.362 23.4393 103.942L27.2902 108.946C33.6123 117.166 44.5168 120.373 54.2846 116.892L65.5126 112.89C76.4141 109.005 82.8928 97.7941 80.8208 86.4097L79.7538 80.5362L79.7448 80.5271Z" fill="url(#paint4_linear_2034_2574)"/>
<path d="M79.743 80.5285L78.4269 73.3226C76.3906 62.1284 73.614 50.189 67.9858 40.3777C62.7628 31.2833 54.9893 23.675 46.3961 17.3864C45.2847 16.5764 44.164 15.8117 43.016 15.1103C24.374 17.6738 8.72984 28.3912 1.0454 34.561C0.409564 35.0752 0.370347 38.6169 0.30389 39.5135C-0.607408 51.7756 2.37534 64.3588 6.90226 75.6973C8.79747 80.4413 11.0374 85.0506 13.5768 89.4798C14.8375 91.6762 16.1799 93.8367 17.5949 95.9431C18.5412 97.3594 20.2139 100.943 21.7422 101.709L23.4467 103.925C33.3881 105.345 55.8091 104.959 79.7522 80.5104L79.743 80.5285Z" fill="url(#paint5_linear_2034_2574)"/>
<path d="M13.6355 89.4241C9.15479 96.4654 -7.71524 126.709 18.4857 146.889C22.4339 149.928 28.1854 147.439 28.6643 142.485L29.2182 136.753C29.913 129.545 32.7897 122.716 37.4645 117.188C39.1744 115.164 39.0487 112.157 37.1619 110.284L15.8919 89.1691C15.2329 88.5146 14.1364 88.6377 13.6355 89.4241Z" fill="url(#paint6_linear_2034_2574)"/>
<path d="M65.4843 68.0525C65.0117 76.5206 65.5277 84.6025 67.6674 92.0196C69.1537 97.1517 72.0911 101.754 76.1102 105.274L91.3193 118.614C93.541 120.56 97.0248 119.005 97.0438 116.061C97.1338 102.908 94.0655 75.5414 68.1445 66.268C66.8869 65.8199 65.5613 66.7212 65.4843 68.0525Z" fill="url(#paint7_linear_2034_2574)"/>
<path d="M37.7466 50.5858C41.2575 43.5485 39.3714 35.4828 33.5339 32.5704C27.6964 29.6581 20.118 33.0019 16.6071 40.0392C13.0962 47.0764 14.9822 55.1422 20.8198 58.0545C26.6573 60.9669 34.2357 57.623 37.7466 50.5858Z" fill="url(#paint8_linear_2034_2574)"/>
<path d="M24.6961 55.4424C31.0197 55.4639 36.1633 50.355 36.1848 44.0315C36.2063 37.708 31.0975 32.5643 24.774 32.5428C18.4505 32.5213 13.3068 37.6301 13.2853 43.9537C13.2638 50.2772 18.3726 55.4209 24.6961 55.4424Z" fill="url(#paint9_linear_2034_2574)"/>
<path d="M49.4809 79.2576C52.9919 72.2204 51.1058 64.1546 45.2683 61.2423C39.4307 58.3299 31.8523 61.6738 28.3414 68.7111C24.8305 75.7483 26.7166 83.8141 32.5541 86.7264C38.3916 89.6388 45.97 86.2949 49.4809 79.2576Z" fill="url(#paint10_linear_2034_2574)"/>
<path d="M36.4383 84.1181C42.7619 84.1396 47.9055 79.0308 47.927 72.7073C47.9485 66.3838 42.8397 61.2401 36.5162 61.2186C30.1926 61.1971 25.049 66.3059 25.0275 72.6295C25.006 78.953 30.1148 84.0966 36.4383 84.1181Z" fill="url(#paint11_linear_2034_2574)"/>
<defs>
<filter id="filter0_b_2034_2574" x="-20" y="56" width="141" height="122" filterUnits="userSpaceOnUse" color-interpolation-filters="sRGB">
<feFlood flood-opacity="0" result="BackgroundImageFix"/>
<feGaussianBlur in="BackgroundImageFix" stdDeviation="2"/>
<feComposite in2="SourceAlpha" operator="in" result="effect1_backgroundBlur_2034_2574"/>
<feBlend mode="normal" in="SourceGraphic" in2="effect1_backgroundBlur_2034_2574" result="shape"/>
</filter>
<filter id="filter1_b_2034_2574" x="49.8633" y="111.766" width="41.582" height="45.2109" filterUnits="userSpaceOnUse" color-interpolation-filters="sRGB">
<feFlood flood-opacity="0" result="BackgroundImageFix"/>
<feGaussianBlur in="BackgroundImageFix" stdDeviation="2"/>
<feComposite in2="SourceAlpha" operator="in" result="effect1_backgroundBlur_2034_2574"/>
<feBlend mode="normal" in="SourceGraphic" in2="effect1_backgroundBlur_2034_2574" result="shape"/>
</filter>
<linearGradient id="paint0_linear_2034_2574" x1="18.3484" y1="70.6999" x2="127.51" y2="97.0362" gradientUnits="userSpaceOnUse">
<stop stop-color="white"/>
<stop offset="1" stop-color="#D7D7FF"/>
</linearGradient>
<linearGradient id="paint1_linear_2034_2574" x1="82.8865" y1="126.184" x2="57.3459" y2="132.426" gradientUnits="userSpaceOnUse">
<stop stop-color="#3A3BBA"/>
<stop offset="1" stop-color="#9494FF"/>
</linearGradient>
<linearGradient id="paint2_linear_2034_2574" x1="91.2908" y1="134.354" x2="66.5864" y2="113.62" gradientUnits="userSpaceOnUse">
<stop stop-color="white"/>
<stop offset="1" stop-color="#D7D7FF"/>
</linearGradient>
<linearGradient id="paint3_linear_2034_2574" x1="41.1885" y1="6.56135" x2="7.44454" y2="33.6201" gradientUnits="userSpaceOnUse">
<stop stop-color="#7273FF"/>
<stop offset="1" stop-color="#B8B9FF"/>
</linearGradient>
<linearGradient id="paint4_linear_2034_2574" x1="79.6105" y1="87.1207" x2="44.2762" y2="125.392" gradientUnits="userSpaceOnUse">
<stop stop-color="#7273FF"/>
<stop offset="1" stop-color="#B8B9FF"/>
</linearGradient>
<linearGradient id="paint5_linear_2034_2574" x1="28.2254" y1="52.5044" x2="87.855" y2="43.8631" gradientUnits="userSpaceOnUse">
<stop stop-color="#F1F1FF"/>
<stop offset="1" stop-color="#CECFFF"/>
</linearGradient>
<linearGradient id="paint6_linear_2034_2574" x1="38.0254" y1="118.597" x2="5.35933" y2="126.333" gradientUnits="userSpaceOnUse">
<stop stop-color="#5E5FFF"/>
<stop offset="1" stop-color="#9494FF"/>
</linearGradient>
<linearGradient id="paint7_linear_2034_2574" x1="96.5452" y1="92.9138" x2="66.4724" y2="100.263" gradientUnits="userSpaceOnUse">
<stop stop-color="#5E5FFF"/>
<stop offset="1" stop-color="#9494FF"/>
</linearGradient>
<linearGradient id="paint8_linear_2034_2574" x1="26.2912" y1="29.843" x2="33.3861" y2="57.7515" gradientUnits="userSpaceOnUse">
<stop stop-color="#7273FF"/>
<stop offset="1" stop-color="#B8B9FF"/>
</linearGradient>
<linearGradient id="paint9_linear_2034_2574" x1="35.7696" y1="44.0493" x2="16.1791" y2="52.0875" gradientUnits="userSpaceOnUse">
<stop stop-color="#5E5FFF"/>
<stop offset="1" stop-color="#9494FF"/>
</linearGradient>
<linearGradient id="paint10_linear_2034_2574" x1="38.0256" y1="58.5149" x2="45.1205" y2="86.4233" gradientUnits="userSpaceOnUse">
<stop stop-color="#7273FF"/>
<stop offset="1" stop-color="#B8B9FF"/>
</linearGradient>
<linearGradient id="paint11_linear_2034_2574" x1="47.5118" y1="72.7251" x2="27.9213" y2="80.7633" gradientUnits="userSpaceOnUse">
<stop stop-color="#5E5FFF"/>
<stop offset="1" stop-color="#9494FF"/>
</linearGradient>
</defs>
</svg>
