<svg width="97" height="93" viewBox="0 0 97 93" fill="none" xmlns="http://www.w3.org/2000/svg">
<path d="M77.7598 15.6997L77.7598 21.8597" stroke="#4B5BEA" stroke-opacity="0.13" stroke-width="4.8"/>
<path d="M46.9604 0.299805L46.9604 6.45981" stroke="#914BEA" stroke-opacity="0.9" stroke-width="4.8"/>
<path d="M18.2134 15.6997L18.2134 21.8597" stroke="#4B5BEA" stroke-opacity="0.13" stroke-width="4.8"/>
<path d="M94.1865 41.3662L94.1865 47.5262" stroke="#914BEA" stroke-opacity="0.9" stroke-width="4.8"/>
<path d="M2.81348 41.3662L2.81348 47.5262" stroke="#914BEA" stroke-opacity="0.9" stroke-width="4.8"/>
<path d="M18.2134 74.2197L18.2134 80.3797" stroke="#4B5BEA" stroke-opacity="0.13" stroke-width="4.8"/>
<path d="M49.0137 86.5396L49.0137 92.6996" stroke="#914BEA" stroke-opacity="0.9" stroke-width="4.8"/>
<path d="M77.7598 71.1396L77.7598 77.2997" stroke="#4B5BEA" stroke-opacity="0.13" stroke-width="4.8"/>
<path d="M60.0098 40.9891L63.4739 37.525L60.0098 34.0609L56.5457 37.525L60.0098 40.9891ZM59.4098 35.1025L59.4098 37.525L60.6098 37.525L60.6098 35.1025L59.4098 35.1025Z" fill="#4B5BEA" fill-opacity="0.13"/>
<path d="M47.8901 34.9335L51.3542 31.4693L47.8901 28.0052L44.426 31.4693L47.8901 34.9335ZM47.2901 29.0469L47.2901 31.4693L48.4901 31.4693L48.4901 29.0469L47.2901 29.0469Z" fill="#914BEA" fill-opacity="0.9"/>
<path d="M36.5889 40.9891L40.053 37.525L36.5889 34.0609L33.1248 37.525L36.5889 40.9891ZM35.9889 35.1025L35.9889 37.525L37.1889 37.525L37.1889 35.1025L35.9889 35.1025Z" fill="#4B5BEA" fill-opacity="0.13"/>
<path d="M66.4663 51.0838L69.9304 47.6197L66.4663 44.1556L63.0022 47.6197L66.4663 51.0838ZM65.8663 45.1973L65.8663 47.6197L67.0663 47.6197L67.0663 45.1973L65.8663 45.1973Z" fill="#914BEA" fill-opacity="0.9"/>
<path d="M30.5332 51.0838L33.9973 47.6197L30.5332 44.1556L27.0691 47.6197L30.5332 51.0838ZM29.9332 45.1973L29.9332 47.6197L31.1332 47.6197L31.1332 45.1973L29.9332 45.1973Z" fill="#914BEA" fill-opacity="0.9"/>
<path d="M36.5889 64.0033L40.053 60.5392L36.5889 57.0751L33.1248 60.5392L36.5889 64.0033ZM35.9889 58.1167L35.9889 60.5392L37.1889 60.5392L37.1889 58.1167L35.9889 58.1167Z" fill="#4B5BEA" fill-opacity="0.13"/>
<path d="M48.7007 68.849L52.1648 65.3849L48.7007 61.9208L45.2366 65.3849L48.7007 68.849ZM48.1007 62.9624L48.1007 65.3849L49.3007 65.3849L49.3007 62.9624L48.1007 62.9624Z" fill="#914BEA" fill-opacity="0.9"/>
<path d="M60.0098 62.7918L63.4739 59.3277L60.0098 55.8636L56.5457 59.3277L60.0098 62.7918ZM59.4098 56.9053L59.4098 59.3277L60.6098 59.3277L60.6098 56.9053L59.4098 56.9053Z" fill="#4B5BEA" fill-opacity="0.13"/>
</svg>
