<svg width="80" height="76" viewBox="0 0 80 76" fill="none" xmlns="http://www.w3.org/2000/svg">
<path d="M63.5312 13.1997L63.5312 18.1597" stroke="#4B5BEA" stroke-opacity="0.13" stroke-width="4.8"/>
<path d="M38.7319 0.799805L38.7319 5.7598" stroke="#914BEA" stroke-opacity="0.9" stroke-width="4.8"/>
<path d="M15.585 13.1997L15.585 18.1597" stroke="#4B5BEA" stroke-opacity="0.13" stroke-width="4.8"/>
<path d="M76.7583 33.8667L76.7583 38.8267" stroke="#914BEA" stroke-opacity="0.9" stroke-width="4.8"/>
<path d="M3.18555 33.8667L3.18555 38.8267" stroke="#914BEA" stroke-opacity="0.9" stroke-width="4.8"/>
<path d="M15.585 60.3198L15.585 65.2798" stroke="#4B5BEA" stroke-opacity="0.13" stroke-width="4.8"/>
<path d="M40.3853 70.2397L40.3853 75.1997" stroke="#914BEA" stroke-opacity="0.9" stroke-width="4.8"/>
<path d="M63.5312 57.8398L63.5312 62.7998" stroke="#4B5BEA" stroke-opacity="0.13" stroke-width="4.8"/>
<path d="M47.5845 35.0646L51.0486 31.6005L47.5845 28.1364L44.1204 31.6005L47.5845 35.0646ZM46.9845 29.6499L46.9845 31.6005L48.1845 31.6005L48.1845 29.6499L46.9845 29.6499Z" fill="#4B5BEA" fill-opacity="0.13"/>
<path d="M37.832 30.1881L41.2961 26.724L37.832 23.2599L34.3679 26.724L37.832 30.1881ZM37.232 24.7734L37.232 26.724L38.432 26.724L38.432 24.7734L37.232 24.7734Z" fill="#914BEA" fill-opacity="0.9"/>
<path d="M28.729 35.0646L32.1931 31.6005L28.729 28.1364L25.2649 31.6005L28.729 35.0646ZM28.129 29.6499L28.129 31.6005L29.329 31.6005L29.329 29.6499L28.129 29.6499Z" fill="#4B5BEA" fill-opacity="0.13"/>
<path d="M52.7861 43.1915L56.2502 39.7274L52.7861 36.2633L49.322 39.7274L52.7861 43.1915ZM52.1861 37.7769L52.1861 39.7274L53.3861 39.7274L53.3861 37.7769L52.1861 37.7769Z" fill="#914BEA" fill-opacity="0.9"/>
<path d="M23.8525 43.1915L27.3166 39.7274L23.8525 36.2633L20.3884 39.7274L23.8525 43.1915ZM23.2525 37.7769L23.2525 39.7274L24.4525 39.7274L24.4525 37.7769L23.2525 37.7769Z" fill="#914BEA" fill-opacity="0.9"/>
<path d="M28.729 53.5948L32.1931 50.1307L28.729 46.6666L25.2649 50.1307L28.729 53.5948ZM28.129 48.1802L28.129 50.1307L29.329 50.1307L29.329 48.1802L28.129 48.1802Z" fill="#4B5BEA" fill-opacity="0.13"/>
<path d="M38.4814 57.4957L41.9455 54.0316L38.4814 50.5675L35.0173 54.0316L38.4814 57.4957ZM37.8814 52.0811L37.8814 54.0316L39.0814 54.0316L39.0814 52.0811L37.8814 52.0811Z" fill="#914BEA" fill-opacity="0.9"/>
<path d="M47.5845 52.6197L51.0486 49.1556L47.5845 45.6915L44.1204 49.1556L47.5845 52.6197ZM46.9845 47.2051L46.9845 49.1556L48.1845 49.1556L48.1845 47.2051L46.9845 47.2051Z" fill="#4B5BEA" fill-opacity="0.13"/>
</svg>
