<svg width="28" height="27" viewBox="0 0 28 27" fill="none" xmlns="http://www.w3.org/2000/svg">
<path d="M20.4614 10.5238L23.9256 7.05969L20.4614 3.59556L16.9973 7.05969L20.4614 10.5238ZM19.8614 5.69971L19.8614 7.05969L21.0614 7.05969L21.0614 5.69971L19.8614 5.69971Z" fill="#4B5BEA" fill-opacity="0.23"/>
<path d="M13.6572 7.12393L17.1214 3.65979L13.6572 0.195657L10.1931 3.65979L13.6572 7.12393ZM13.0572 2.2998L13.0572 3.65979L14.2572 3.65979L14.2572 2.2998L13.0572 2.2998Z" fill="#914BEA"/>
<path d="M7.31299 10.5238L10.7771 7.05969L7.31299 3.59556L3.84885 7.05969L7.31299 10.5238ZM6.71298 5.69971L6.71298 7.05969L7.91299 7.05969L7.91299 5.69971L6.71298 5.69971Z" fill="#4B5BEA" fill-opacity="0.23"/>
<path d="M24.0859 16.1908L27.5501 12.7267L24.0859 9.26255L20.6218 12.7267L24.0859 16.1908ZM23.4859 11.3667L23.4859 12.7267L24.6859 12.7267L24.6859 11.3667L23.4859 11.3667Z" fill="#914BEA"/>
<path d="M3.91309 16.1908L7.37722 12.7267L3.91309 9.26255L0.448951 12.7267L3.91309 16.1908ZM3.31308 11.3667L3.31308 12.7267L4.51309 12.7267L4.51309 11.3667L3.31308 11.3667Z" fill="#914BEA"/>
<path d="M7.31299 23.4437L10.7771 19.9796L7.31299 16.5155L3.84885 19.9796L7.31299 23.4437ZM6.71298 18.6196L6.71298 19.9796L7.91299 19.9796L7.91299 18.6196L6.71298 18.6196Z" fill="#4B5BEA" fill-opacity="0.23"/>
<path d="M14.1123 26.164L17.5764 22.6998L14.1123 19.2357L10.6482 22.6998L14.1123 26.164ZM13.5123 21.3398L13.5123 22.6998L14.7123 22.6998L14.7123 21.3398L13.5123 21.3398Z" fill="#914BEA"/>
<path d="M20.4614 22.7636L23.9256 19.2994L20.4614 15.8353L16.9973 19.2994L20.4614 22.7636ZM19.8614 17.9395L19.8614 19.2994L21.0614 19.2994L21.0614 17.9395L19.8614 17.9395Z" fill="#4B5BEA" fill-opacity="0.23"/>
</svg>
