<svg width="20" height="22" viewBox="0 0 20 22" fill="none" xmlns="http://www.w3.org/2000/svg">
<path d="M15.562 8.222L15.036 9.15C14.541 10.023 14.293 10.459 13.754 10.497C13.214 10.535 12.986 10.223 12.529 9.599C12.021 8.90003 11.6952 8.08549 11.581 7.229C11.474 6.43 11.421 6.031 11.291 5.834C11.085 5.521 10.669 5.349 10.359 5.167C9.542 4.687 9.133 4.447 9.026 4.038C8.918 3.631 9.154 3.215 9.626 2.383C10.098 1.551 10.334 1.135 10.735 1.026C11.135 0.915997 11.545 1.157 12.362 1.637C12.672 1.82 13.026 2.099 13.396 2.125C13.628 2.141 13.995 1.988 14.728 1.683C15.5143 1.35378 16.3724 1.23322 17.219 1.333C17.979 1.424 18.359 1.47 18.595 1.963C18.833 2.458 18.585 2.894 18.09 3.767L17.564 4.693M15.562 8.222L15.996 8.477C16.2238 8.61041 16.4759 8.69701 16.7376 8.73174C16.9993 8.76647 17.2653 8.74862 17.5201 8.67923C17.7748 8.60985 18.0131 8.49033 18.221 8.32768C18.4289 8.16503 18.6023 7.96251 18.731 7.732C18.9973 7.26431 19.0697 6.71086 18.9327 6.1904C18.7957 5.66993 18.4601 5.22391 17.998 4.948L17.564 4.693M15.562 8.222L17.564 4.693M4 11L11 6M5 21H12M4 14L9 21M5 12C5 12.5304 4.78929 13.0391 4.41421 13.4142C4.03914 13.7893 3.53043 14 3 14C2.46957 14 1.96086 13.7893 1.58579 13.4142C1.21071 13.0391 1 12.5304 1 12C1 11.4696 1.21071 10.9609 1.58579 10.5858C1.96086 10.2107 2.46957 10 3 10C3.53043 10 4.03914 10.2107 4.41421 10.5858C4.78929 10.9609 5 11.4696 5 12Z" stroke="#82829B" stroke-width="1.5" stroke-linecap="round" stroke-linejoin="round"/>
</svg>
