<svg width="31" height="29" viewBox="0 0 31 29" fill="none" xmlns="http://www.w3.org/2000/svg">
<path d="M11.1279 1.17969H19.5083C19.7889 1.17969 20.0455 1.33762 20.172 1.58808L21.7514 4.7152C21.8779 4.96566 22.1346 5.12359 22.4152 5.12359H28.5175C28.9282 5.12359 29.2612 5.45652 29.2612 5.86722V27.3861C29.2612 27.7968 28.9282 28.1297 28.5175 28.1297H2.11863C1.70794 28.1297 1.375 27.7968 1.375 27.3861V5.86722C1.375 5.45652 1.70793 5.12359 2.11863 5.12359H8.221C8.50159 5.12359 8.75829 4.96566 8.88478 4.7152L10.4641 1.58808C10.5906 1.33762 10.8473 1.17969 11.1279 1.17969Z" stroke="white" stroke-width="1.72629" stroke-linecap="round"/>
<path d="M20.6312 16.3015C20.6312 18.8327 18.5567 20.8961 15.9835 20.8961C13.4104 20.8961 11.3358 18.8327 11.3358 16.3015C11.3358 13.7703 13.4104 11.7069 15.9835 11.7069C18.5567 11.7069 20.6312 13.7703 20.6312 16.3015Z" stroke="white" stroke-width="1.32791"/>
</svg>
