<svg width="15" height="13" viewBox="0 0 15 13" fill="none" xmlns="http://www.w3.org/2000/svg">
<path d="M13.2589 9.80608C12.9839 9.80608 12.7679 9.59001 12.7679 9.31501C12.7679 9.04001 12.9839 8.82394 13.2589 8.82394C13.5339 8.82394 13.75 8.60787 13.75 8.33287C13.75 7.68167 13.4913 7.05714 13.0308 6.59667C12.5704 6.1362 11.9458 5.87751 11.2946 5.87751H10.3125C10.0375 5.87751 9.82143 5.66144 9.82143 5.38644C9.82143 5.11144 10.0375 4.89537 10.3125 4.89537C11.1277 4.89537 11.7857 4.23733 11.7857 3.42215C11.7857 2.60698 11.1277 1.94894 10.3125 1.94894C10.0375 1.94894 9.82143 1.73287 9.82143 1.45787C9.82143 1.18287 10.0375 0.966797 10.3125 0.966797C10.9637 0.966797 11.5882 1.22549 12.0487 1.68595C12.5092 2.14642 12.7679 2.77095 12.7679 3.42215C12.7679 4.03108 12.5518 4.58108 12.1786 5.01323C13.642 5.40608 14.7321 6.7418 14.7321 8.33287C14.7321 9.14805 14.0741 9.80608 13.2589 9.80608ZM1.47321 9.80608C0.658036 9.80608 0 9.14805 0 8.33287C0 6.7418 1.08036 5.40608 2.55357 5.01323C2.19018 4.58108 1.96429 4.03108 1.96429 3.42215C1.96429 2.77095 2.22297 2.14642 2.68344 1.68595C3.14391 1.22549 3.76844 0.966797 4.41964 0.966797C4.69464 0.966797 4.91071 1.18287 4.91071 1.45787C4.91071 1.73287 4.69464 1.94894 4.41964 1.94894C3.60446 1.94894 2.94643 2.60698 2.94643 3.42215C2.94643 4.23733 3.60446 4.89537 4.41964 4.89537C4.69464 4.89537 4.91071 5.11144 4.91071 5.38644C4.91071 5.66144 4.69464 5.87751 4.41964 5.87751H3.4375C2.7863 5.87751 2.16177 6.1362 1.7013 6.59667C1.24083 7.05714 0.982143 7.68167 0.982143 8.33287C0.982143 8.60787 1.19821 8.82394 1.47321 8.82394C1.74821 8.82394 1.96429 9.04001 1.96429 9.31501C1.96429 9.59001 1.74821 9.80608 1.47321 9.80608ZM10.3125 12.7525H4.41964C3.60446 12.7525 2.94643 12.0945 2.94643 11.2793V10.2972C2.94643 8.40162 4.48839 6.85965 6.38393 6.85965H8.34821C10.2437 6.85965 11.7857 8.40162 11.7857 10.2972V11.2793C11.7857 12.0945 11.1277 12.7525 10.3125 12.7525ZM6.38393 7.8418C5.73273 7.8418 5.1082 8.10049 4.64773 8.56095C4.18726 9.02142 3.92857 9.64595 3.92857 10.2972V11.2793C3.92857 11.5543 4.14464 11.7704 4.41964 11.7704H10.3125C10.5875 11.7704 10.8036 11.5543 10.8036 11.2793V10.2972C10.8036 9.64595 10.5449 9.02142 10.0844 8.56095C9.62394 8.10049 8.99942 7.8418 8.34821 7.8418H6.38393Z" fill="#9470ED"/>
</svg>
