<svg width="24" height="25" viewBox="0 0 24 25" fill="none" xmlns="http://www.w3.org/2000/svg">
<circle cx="12" cy="12.4297" r="12" fill="white"/>
<path d="M18.1788 7.86959C18.3194 8.0239 18.3984 8.23307 18.3984 8.45116C18.3984 8.66925 18.3194 8.87843 18.1788 9.03274L10.9173 16.9882C10.7764 17.1423 10.5855 17.2289 10.3864 17.2289C10.1873 17.2289 9.99642 17.1423 9.85557 16.9882L6.60041 13.422C6.46756 13.266 6.39519 13.0596 6.39855 12.8463C6.40191 12.633 6.48075 12.4294 6.61844 12.2786C6.75614 12.1277 6.94193 12.0414 7.13663 12.0377C7.33133 12.034 7.51972 12.1133 7.6621 12.2588L10.3864 15.2435L17.1171 7.86959C17.2579 7.71547 17.4488 7.62891 17.6479 7.62891C17.847 7.62891 18.0379 7.71547 18.1788 7.86959Z" fill="#3F3FFF"/>
</svg>
