<svg width="24" height="24" viewBox="0 0 24 24" fill="none" xmlns="http://www.w3.org/2000/svg">
<circle cx="12" cy="12" r="11.5" stroke="#6224FD"/>
<path d="M16.8169 8.20057C16.9342 8.32916 17 8.50347 17 8.68521C17 8.86696 16.9342 9.04127 16.8169 9.16986L10.7657 15.7994C10.6483 15.9279 10.4892 16 10.3233 16C10.1574 16 9.99832 15.9279 9.88094 15.7994L7.16831 12.8276C7.0576 12.6976 6.99729 12.5256 7.00009 12.3478C7.0029 12.1701 7.0686 12.0004 7.18334 11.8747C7.29809 11.749 7.45291 11.677 7.61516 11.674C7.77741 11.6709 7.93441 11.737 8.05305 11.8583L10.3233 14.3455L15.9322 8.20057C16.0496 8.07214 16.2087 8 16.3746 8C16.5404 8 16.6996 8.07214 16.8169 8.20057Z" fill="#6224FD"/>
</svg>
