<svg width="20" height="4" viewBox="0 0 20 4" fill="none" xmlns="http://www.w3.org/2000/svg">
<path d="M2 3C2.26522 3 2.51957 2.89464 2.70711 2.70711C2.89464 2.51957 3 2.26522 3 2C3 1.73478 2.89464 1.48043 2.70711 1.29289C2.51957 1.10536 2.26522 1 2 1C1.73478 1 1.48043 1.10536 1.29289 1.29289C1.10536 1.48043 1 1.73478 1 2C1 2.26522 1.10536 2.51957 1.29289 2.70711C1.48043 2.89464 1.73478 3 2 3ZM10 3C10.2652 3 10.5196 2.89464 10.7071 2.70711C10.8946 2.51957 11 2.26522 11 2C11 1.73478 10.8946 1.48043 10.7071 1.29289C10.5196 1.10536 10.2652 1 10 1C9.73478 1 9.48043 1.10536 9.29289 1.29289C9.10536 1.48043 9 1.73478 9 2C9 2.26522 9.10536 2.51957 9.29289 2.70711C9.48043 2.89464 9.73478 3 10 3ZM18 3C18.2652 3 18.5196 2.89464 18.7071 2.70711C18.8946 2.51957 19 2.26522 19 2C19 1.73478 18.8946 1.48043 18.7071 1.29289C18.5196 1.10536 18.2652 1 18 1C17.7348 1 17.4804 1.10536 17.2929 1.29289C17.1054 1.48043 17 1.73478 17 2C17 2.26522 17.1054 2.51957 17.2929 2.70711C17.4804 2.89464 17.7348 3 18 3Z" stroke="#7B7B7B" stroke-width="2"/>
</svg>
