<svg width="18" height="20" viewBox="0 0 18 20" fill="none" xmlns="http://www.w3.org/2000/svg">
<path d="M8.0375 13.1573L11.2229 9.97187C11.4062 9.78854 11.6278 9.69687 11.8875 9.69687C12.1472 9.69687 12.3688 9.78854 12.5521 9.97187C12.7354 10.1552 12.8271 10.3767 12.8271 10.6365C12.8271 10.8962 12.7354 11.1177 12.5521 11.301L8.67917 15.174C8.49583 15.3573 8.28194 15.449 8.0375 15.449C7.79306 15.449 7.57917 15.3573 7.39583 15.174L5.44792 13.226C5.26458 13.0427 5.17292 12.8212 5.17292 12.5615C5.17292 12.3017 5.26458 12.0802 5.44792 11.8969C5.63125 11.7135 5.85278 11.6219 6.1125 11.6219C6.37222 11.6219 6.59375 11.7135 6.77708 11.8969L8.0375 13.1573ZM2.58333 19.1615C2.07917 19.1615 1.64757 18.9819 1.28854 18.6229C0.929514 18.2639 0.75 17.8323 0.75 17.3281V4.49479C0.75 3.99062 0.929514 3.55903 1.28854 3.2C1.64757 2.84097 2.07917 2.66146 2.58333 2.66146H3.5V1.74479C3.5 1.48507 3.58785 1.26736 3.76354 1.09167C3.93924 0.915972 4.15694 0.828125 4.41667 0.828125C4.67639 0.828125 4.8941 0.915972 5.06979 1.09167C5.24549 1.26736 5.33333 1.48507 5.33333 1.74479V2.66146H12.6667V1.74479C12.6667 1.48507 12.7545 1.26736 12.9302 1.09167C13.1059 0.915972 13.3236 0.828125 13.5833 0.828125C13.8431 0.828125 14.0608 0.915972 14.2365 1.09167C14.4122 1.26736 14.5 1.48507 14.5 1.74479V2.66146H15.4167C15.9208 2.66146 16.3524 2.84097 16.7115 3.2C17.0705 3.55903 17.25 3.99062 17.25 4.49479V17.3281C17.25 17.8323 17.0705 18.2639 16.7115 18.6229C16.3524 18.9819 15.9208 19.1615 15.4167 19.1615H2.58333ZM2.58333 17.3281H15.4167V8.16146H2.58333V17.3281Z" fill="#555555"/>
</svg>
