<svg width="20" height="23" viewBox="0 0 20 23" fill="none" xmlns="http://www.w3.org/2000/svg">
<path d="M16.6207 13.482C17.3732 13.482 18.095 13.781 18.6271 14.3131C19.1592 14.8452 19.4582 15.567 19.4582 16.3195V16.9958C19.4582 20.379 15.4763 22.9402 9.99998 22.9402C4.52369 22.9402 0.541801 20.5123 0.541801 16.9958V16.3195C0.541801 15.567 0.840747 14.8452 1.37287 14.3131C1.905 13.781 2.62671 13.482 3.37925 13.482H16.6207ZM16.6207 14.9008H3.37925C3.02672 14.9008 2.68682 15.032 2.42577 15.2689C2.16472 15.5059 2.00123 15.8315 1.96715 16.1824L1.96053 16.3195V16.9958C1.96053 19.5249 5.1659 21.5215 9.99998 21.5215C14.6591 21.5215 17.9023 19.5306 18.0356 17.148L18.0394 16.9958V16.3195C18.0394 15.967 17.9082 15.6271 17.6713 15.366C17.4343 15.105 17.1087 14.9415 16.7578 14.9074L16.6207 14.9008ZM9.99998 0.240601C10.7452 0.240601 11.4832 0.387386 12.1717 0.672577C12.8602 0.957768 13.4858 1.37578 14.0127 1.90274C14.5397 2.42971 14.9577 3.0553 15.2429 3.74381C15.5281 4.43233 15.6749 5.17027 15.6749 5.91551C15.6749 6.66075 15.5281 7.39869 15.2429 8.0872C14.9577 8.77571 14.5397 9.40131 14.0127 9.92827C13.4858 10.4552 12.8602 10.8732 12.1717 11.1584C11.4832 11.4436 10.7452 11.5904 9.99998 11.5904C8.4949 11.5904 7.05146 10.9925 5.98721 9.92827C4.92296 8.86402 4.32507 7.42059 4.32507 5.91551C4.32507 4.41043 4.92296 2.96699 5.98721 1.90274C7.05146 0.838491 8.4949 0.240601 9.99998 0.240601ZM9.99998 1.65933C8.87117 1.65933 7.78859 2.10774 6.9904 2.90593C6.19222 3.70412 5.7438 4.7867 5.7438 5.91551C5.7438 7.04432 6.19222 8.12689 6.9904 8.92508C7.78859 9.72327 8.87117 10.1717 9.99998 10.1717C11.1288 10.1717 12.2114 9.72327 13.0095 8.92508C13.8077 8.12689 14.2562 7.04432 14.2562 5.91551C14.2562 4.7867 13.8077 3.70412 13.0095 2.90593C12.2114 2.10774 11.1288 1.65933 9.99998 1.65933Z" fill="#82829B"/>
</svg>
