<svg width="19" height="18" viewBox="0 0 19 18" fill="none" xmlns="http://www.w3.org/2000/svg">
<path fill-rule="evenodd" clip-rule="evenodd" d="M10.4607 1.64456C9.00564 1.35468 7.49733 1.50284 6.12653 2.07032C4.75572 2.6378 3.58402 3.59909 2.75964 4.83259C1.93526 6.06609 1.49524 7.51638 1.49524 9C1.49524 10.4836 1.93526 11.9339 2.75964 13.1674C3.58402 14.4009 4.75572 15.3622 6.12653 15.9297C7.49733 16.4972 9.00564 16.6453 10.4607 16.3554C11.9157 16.0656 13.2521 15.3506 14.3007 14.3011C14.5935 14.0081 15.0684 14.0079 15.3614 14.3007C15.6544 14.5935 15.6546 15.0684 15.3618 15.3614C14.1034 16.6208 12.4998 17.4787 10.7538 17.8265C9.00772 18.1744 7.19775 17.9966 5.55278 17.3156C3.90782 16.6346 2.50178 15.4811 1.51252 14.0009C0.523265 12.5207 -0.00476074 10.7803 -0.00476074 9C-0.00476074 7.21966 0.523265 5.47931 1.51252 3.99911C2.50178 2.51891 3.90782 1.36536 5.55278 0.684386C7.19775 0.00341298 9.00772 -0.174388 10.7538 0.173474C12.4996 0.521299 14.1031 1.37905 15.3614 2.63823C15.3613 2.6381 15.3615 2.63837 15.3614 2.63823L18.5483 5.81577C18.8416 6.10823 18.8423 6.5831 18.5499 6.87643C18.2574 7.16975 17.7825 7.17045 17.4892 6.87799L14.3007 3.69887C13.2521 2.64936 11.9157 1.93445 10.4607 1.64456Z" fill="#434343"/>
</svg>
