<svg width="11" height="12" viewBox="0 0 11 12" fill="none" xmlns="http://www.w3.org/2000/svg">
<mask id="mask0_112_601" style="mask-type:alpha" maskUnits="userSpaceOnUse" x="0" y="0" width="11" height="12">
<rect y="0.5" width="11" height="11" fill="#D9D9D9"/>
</mask>
<g mask="url(#mask0_112_601)">
<path d="M5.50002 10.5827C4.92711 10.5827 4.39048 10.4738 3.89013 10.2561C3.38978 10.0384 2.95436 9.7443 2.58388 9.37381C2.21339 9.00333 1.9193 8.56791 1.70159 8.06756C1.48388 7.56722 1.37502 7.03058 1.37502 6.45767C1.37502 5.88475 1.48388 5.34812 1.70159 4.84777C1.9193 4.34742 2.21339 3.91201 2.58388 3.54152C2.95436 3.17103 3.38978 2.87694 3.89013 2.65923C4.39048 2.44152 4.92711 2.33267 5.50002 2.33267C6.07294 2.33267 6.60957 2.44152 7.10992 2.65923C7.61027 2.87694 8.04568 3.17103 8.41617 3.54152C8.78666 3.91201 9.08075 4.34742 9.29846 4.84777C9.51617 5.34812 9.62502 5.88475 9.62502 6.45767C9.62502 7.03058 9.51617 7.56722 9.29846 8.06756C9.08075 8.56791 8.78666 9.00333 8.41617 9.37381C8.04568 9.7443 7.61027 10.0384 7.10992 10.2561C6.60957 10.4738 6.07294 10.5827 5.50002 10.5827ZM6.78336 8.38267L7.42502 7.741L5.95836 6.27433V4.166H5.04169V6.641L6.78336 8.38267ZM2.56669 1.57642L3.20836 2.21808L1.26044 4.166L0.618774 3.52433L2.56669 1.57642ZM8.43336 1.57642L10.3813 3.52433L9.73961 4.166L7.79169 2.21808L8.43336 1.57642ZM5.50002 9.666C6.39377 9.666 7.15193 9.35472 7.7745 8.73215C8.39707 8.10958 8.70836 7.35142 8.70836 6.45767C8.70836 5.56392 8.39707 4.80576 7.7745 4.18319C7.15193 3.56062 6.39377 3.24933 5.50002 3.24933C4.60627 3.24933 3.84811 3.56062 3.22555 4.18319C2.60298 4.80576 2.29169 5.56392 2.29169 6.45767C2.29169 7.35142 2.60298 8.10958 3.22555 8.73215C3.84811 9.35472 4.60627 9.666 5.50002 9.666Z" fill="#D43477"/>
</g>
</svg>
