<svg width="12" height="14" viewBox="0 0 12 14" fill="none" xmlns="http://www.w3.org/2000/svg">
<path d="M0.9 9.3275V10.1365L1.62361 9.77471C1.74812 9.71246 1.87514 9.66887 2.00556 9.64279C2.14683 9.61454 2.29475 9.6 2.45 9.6H2.8H3.3V9.1V1.4V0.9H2.8H2.45C2.02724 0.9 1.6517 1.0537 1.3527 1.3527C1.0537 1.6517 0.9 2.02724 0.9 2.45V9.3275ZM3.7 9.1V9.6H4.2H9.8H10.3V9.1V1.4V0.9H9.8H4.2H3.7V1.4V9.1ZM8.9775 13.1H9.73577L9.43707 12.403C9.37788 12.2649 9.33141 12.1253 9.29729 11.9839C9.26691 11.8581 9.25 11.7142 9.25 11.55C9.25 11.3948 9.26454 11.2468 9.29279 11.1056C9.31887 10.9751 9.36246 10.8481 9.42471 10.7236L9.78652 10H8.9775H2.45C2.02143 10 1.63801 10.1499 1.33886 10.4579C1.04741 10.7579 0.9 11.1318 0.9 11.55C0.9 11.974 1.04374 12.3558 1.34395 12.6561C1.64416 12.9563 2.02598 13.1 2.45 13.1H8.9775ZM2.45 13.5C1.9059 13.5 1.45559 13.3135 1.07105 12.9289C0.68652 12.5444 0.5 12.0941 0.5 11.55V2.45C0.5 1.9059 0.68652 1.45559 1.07105 1.07105C1.45559 0.68652 1.9059 0.5 2.45 0.5H10.7V10.0789C10.4786 10.1527 10.2776 10.2778 10.1027 10.4527C9.8037 10.7517 9.65 11.1272 9.65 11.55C9.65 11.9728 9.8037 12.3483 10.1027 12.6473C10.2776 12.8222 10.4786 12.9473 10.7 13.0211V13.5H2.45Z" fill="#A180F4" stroke="#E0D8FF"/>
</svg>
