<svg width="29" height="30" viewBox="0 0 29 30" fill="none" xmlns="http://www.w3.org/2000/svg">
<path fill-rule="evenodd" clip-rule="evenodd" d="M23.2702 5.9891C23.6203 6.33916 23.6203 6.9067 23.2702 7.25676L7.13566 23.3913C6.78561 23.7414 6.21806 23.7414 5.86801 23.3913C5.51795 23.0413 5.51795 22.4737 5.86801 22.1237L22.0026 5.9891C22.3526 5.63905 22.9202 5.63905 23.2702 5.9891Z" fill="black" fill-opacity="0.8"/>
<path fill-rule="evenodd" clip-rule="evenodd" d="M5.86801 5.9891C6.21806 5.63905 6.78561 5.63905 7.13566 5.9891L23.2702 22.1237C23.6203 22.4737 23.6203 23.0413 23.2702 23.3913C22.9202 23.7414 22.3526 23.7414 22.0026 23.3913L5.86801 7.25675C5.51796 6.9067 5.51796 6.33915 5.86801 5.9891Z" fill="black" fill-opacity="0.8"/>
</svg>
