<svg width="27" height="27" viewBox="0 0 27 27" fill="none" xmlns="http://www.w3.org/2000/svg">
<circle cx="13.5" cy="13.5" r="13.5" fill="#6224FD"/>
<path d="M21.1103 9.2402C21.2669 9.3942 21.3548 9.60295 21.3548 9.8206C21.3548 10.0383 21.2669 10.247 21.1103 10.401L13.029 18.3404C12.8723 18.4943 12.6598 18.5806 12.4382 18.5806C12.2167 18.5806 12.0042 18.4943 11.8475 18.3404L8.22478 14.7814C8.07693 14.6257 7.99638 14.4197 8.00012 14.2069C8.00387 13.994 8.09161 13.7908 8.24484 13.6403C8.39809 13.4897 8.60485 13.4035 8.82153 13.3999C9.03821 13.3962 9.24788 13.4753 9.40633 13.6206L12.4382 16.5992L19.9288 9.2402C20.0855 9.08639 20.298 9 20.5196 9C20.7411 9 20.9536 9.08639 21.1103 9.2402Z" fill="white"/>
</svg>
