<svg width="27" height="27" viewBox="0 0 27 27" fill="none" xmlns="http://www.w3.org/2000/svg">
<circle cx="13.5" cy="13.5" r="13.5" fill="#6224FD"/>
<path d="M20.1103 10.2402C20.2669 10.3942 20.3548 10.6029 20.3548 10.8206C20.3548 11.0383 20.2669 11.247 20.1103 11.401L12.029 19.3404C11.8723 19.4943 11.6598 19.5806 11.4382 19.5806C11.2167 19.5806 11.0042 19.4943 10.8475 19.3404L7.22478 15.7814C7.07693 15.6257 6.99638 15.4197 7.00012 15.2069C7.00387 14.994 7.09161 14.7908 7.24484 14.6403C7.39809 14.4897 7.60485 14.4035 7.82153 14.3999C8.03821 14.3962 8.24788 14.4753 8.40633 14.6206L11.4382 17.5992L18.9288 10.2402C19.0855 10.0864 19.298 10 19.5196 10C19.7411 10 19.9536 10.0864 20.1103 10.2402Z" fill="white"/>
</svg>
