<svg width="237" height="194" viewBox="0 0 237 194" fill="none" xmlns="http://www.w3.org/2000/svg">
<path d="M177.327 160.941L85.6295 148.167C79.1478 147.268 74.6106 141.273 75.5015 134.773L91.179 42.5512C92.0775 36.0694 95.1614 32.0374 101.67 32.9474L193.367 45.7215C199.849 46.6199 204.386 52.6147 203.495 59.1154L190.721 150.813C189.822 157.294 183.828 161.832 177.327 160.941Z" fill="url(#paint0_linear_0_1)"/>
<path d="M190.411 45.3172L105.109 33.4331C98.9319 32.5724 93.2265 36.8825 92.3658 43.0598L79.9416 132.238C79.081 138.415 83.391 144.12 89.5684 144.981L174.87 156.865C181.047 157.726 186.753 153.416 187.613 147.238L200.037 58.0606C200.898 51.8833 196.588 46.1779 190.411 45.3172Z" fill="url(#paint1_linear_0_1)"/>
<path d="M184.977 50.6918L108.902 40.0931C103.394 39.3257 98.3061 43.1689 97.5387 48.6772L86.459 128.204C85.6916 133.713 89.5348 138.8 95.0432 139.568L171.118 150.166C176.626 150.934 181.714 147.09 182.481 141.582L193.561 62.055C194.328 56.5467 190.485 51.4592 184.977 50.6918Z" fill="url(#paint2_linear_0_1)"/>
<path d="M191.35 44.5694L97.9818 33.0628C94.9287 32.8137 92.185 34.8078 91.4143 37.7587C89.6271 44.6542 87.1615 51.6622 84.242 58.6291L190.919 73.3735C193.224 66.6255 195.183 59.5533 196.938 52.2979C197.836 48.553 195.213 44.8736 191.369 44.562L191.35 44.5694Z" fill="#7274FF"/>
<g filter="url(#filter0_b_0_1)">
<path d="M49.6323 115.996C46.3363 120.045 49.7034 129.039 54.8374 129.962C75.0637 133.534 104.872 138.308 145.635 143.931C155.867 145.342 165.701 146.406 169.063 133.623C169.063 133.623 185.797 88.3662 190.879 73.3936L84.2015 58.6491C75.089 80.3233 61.5103 101.382 49.6208 116.022L49.6323 115.996Z" fill="url(#paint3_linear_0_1)"/>
<path d="M165.973 141.335C167.624 139.554 168.915 137.116 169.779 133.849L169.814 133.753L169.955 133.371C170.079 133.036 170.261 132.542 170.495 131.909C170.963 130.642 171.636 128.815 172.461 126.577C174.109 122.1 176.36 115.974 178.769 109.38C183.587 96.197 189.045 81.1308 191.589 73.6346L191.881 72.7749L190.981 72.6506L84.3042 57.9062L83.7334 57.8273L83.5101 58.3585C74.4339 79.9461 60.9045 100.934 49.0573 115.526L49.0507 115.522C47.1592 117.846 47.2576 121.431 48.371 124.414C49.4845 127.396 51.7606 130.171 54.7047 130.7L54.7069 130.701C74.9442 134.274 104.762 139.05 145.533 144.674C150.613 145.374 155.792 146.027 160.126 144.822C162.319 144.213 164.311 143.126 165.973 141.335Z" stroke="url(#paint4_linear_0_1)" stroke-width="1.5"/>
</g>
<path d="M107.113 45.1773C106.596 42.5983 103.517 41.0406 100.234 41.6981C96.9518 42.3556 94.7097 44.9793 95.2263 47.5583C95.7429 50.1373 98.8226 51.695 102.105 51.0375C105.387 50.38 107.629 47.7563 107.113 45.1773Z" fill="url(#paint5_linear_0_1)"/>
<path d="M120.009 35.7466L109.183 34.0812C109.126 33.8142 109.052 33.5534 109.001 33.3034C108.852 33.5292 108.709 33.7719 108.577 33.9916C108.466 34.1652 108.362 34.3558 108.303 34.5111C106.912 38.0162 106.707 41.9977 106.188 45.6893C105.254 52.3456 94.7743 51.6485 95.7072 44.9351C96.2456 41.0833 96.6248 36.4647 97.9106 32.3456C99.1637 28.2957 101.271 24.7066 105.212 22.761C109.159 20.8324 113.795 22.0101 116.627 25.2696C119.148 28.142 119.974 32.0042 119.986 35.7357L120.009 35.7466Z" fill="url(#paint6_linear_0_1)"/>
<path d="M130.734 48.5677C130.128 46.0084 126.996 44.5593 123.738 45.3312C120.481 46.1031 118.332 48.8036 118.938 51.363C119.545 53.9224 122.677 55.3714 125.935 54.5995C129.192 53.8276 131.341 51.1271 130.734 48.5677Z" fill="url(#paint7_linear_0_1)"/>
<path d="M143.3 38.6965L132.422 37.4108C132.355 37.146 132.272 36.8879 132.212 36.6399C132.071 36.8707 131.937 37.1183 131.812 37.3425C131.708 37.5198 131.61 37.7139 131.557 37.8713C130.29 41.4228 130.224 45.4091 129.835 49.1166C129.134 55.8015 118.636 55.4713 119.334 48.7294C119.737 44.8612 119.954 40.2321 121.095 36.0705C122.206 31.9793 124.187 28.3187 128.057 26.2365C131.934 24.171 136.608 25.1858 139.553 28.3442C142.173 31.1267 143.133 34.9577 143.276 38.6864L143.3 38.6965Z" fill="url(#paint8_linear_0_1)"/>
<path d="M153.55 51.8514C152.934 49.2943 149.797 47.8565 146.542 48.6401C143.288 49.4238 141.148 52.132 141.764 54.6892C142.38 57.2463 145.517 58.6841 148.772 57.9004C152.027 57.1168 154.166 54.4086 153.55 51.8514Z" fill="url(#paint9_linear_0_1)"/>
<path d="M166.063 41.9321L155.18 40.6855C155.113 40.421 155.029 40.1632 154.968 39.9154C154.828 40.1468 154.694 40.3948 154.571 40.6195C154.467 40.7972 154.37 40.9916 154.317 41.1491C153.063 44.7053 153.012 48.6917 152.635 52.4006C151.959 59.088 141.46 58.7956 142.133 52.0513C142.522 48.1816 142.723 43.5517 143.849 39.3861C144.945 35.2909 146.913 31.6232 150.775 29.527C154.644 27.4476 159.322 28.4455 162.278 31.5933C164.909 34.3664 165.883 38.1939 166.039 41.922L166.063 41.9321Z" fill="url(#paint10_linear_0_1)"/>
<path d="M176.389 53.9501C175.738 51.4016 172.582 50.0069 169.338 50.8349C166.094 51.6629 163.992 54.4002 164.643 56.9487C165.294 59.4972 168.45 60.8919 171.694 60.0639C174.938 59.2358 177.04 56.4986 176.389 53.9501Z" fill="url(#paint11_linear_0_1)"/>
<path d="M188.78 43.8537L177.882 42.756C177.811 42.4925 177.723 42.2358 177.659 41.9889C177.522 42.2221 177.392 42.472 177.271 42.6983C177.17 42.8774 177.076 43.0732 177.025 43.2314C175.819 46.8043 175.823 50.7911 175.497 54.5048C174.912 61.2008 164.41 61.052 164.991 54.2991C165.328 50.4244 165.465 45.7922 166.534 41.6116C167.574 37.5018 169.491 33.8075 173.325 31.6588C177.165 29.5267 181.856 30.4606 184.855 33.5676C187.523 36.3045 188.549 40.1183 188.757 43.844L188.78 43.8537Z" fill="url(#paint12_linear_0_1)"/>
<g filter="url(#filter1_f_0_1)">
<ellipse cx="48.6699" cy="76.0168" rx="37.257" ry="29.8685" transform="rotate(-32.1903 48.6699 76.0168)" fill="url(#paint13_radial_0_1)" fill-opacity="0.5"/>
</g>
<path d="M57.7966 90.4127C41.5475 102.755 19.6392 101.552 7.77997 88.0064C20.0345 99.0214 39.3549 98.7869 54.4598 87.2948C71.3123 74.4751 76.3969 52.3891 64.8914 37.3705C64.4544 36.8104 64.0176 36.2711 63.5598 35.7525C64.9746 37.0179 66.3061 38.4492 67.4921 40.005C78.9768 55.0236 74.6284 77.5929 57.7966 90.4127Z" fill="url(#paint14_linear_0_1)"/>
<path d="M54.9291 87.4651C39.8847 99.005 19.9084 98.7347 7.70298 87.6938C7.24709 87.1948 6.81197 86.6542 6.39753 86.1136C-5.04117 71.0597 -0.730994 48.4372 16.0541 35.5874C31.0984 24.0682 51.0333 24.297 63.2595 35.3171C63.7154 35.8369 64.1505 36.3775 64.5857 36.9389C76.0451 51.9928 71.7141 74.6152 54.9291 87.4651Z" fill="#8E8E8E"/>
<g filter="url(#filter2_b_0_1)">
<path d="M54.9291 87.4651C39.8847 99.005 19.9084 98.7347 7.70298 87.6938C7.24709 87.1948 6.81197 86.6542 6.39753 86.1136C-5.04117 71.0597 -0.730994 48.4372 16.0541 35.5874C31.0984 24.0682 51.0333 24.297 63.2595 35.3171C63.7154 35.8369 64.1505 36.3775 64.5857 36.9389C76.0451 51.9928 71.7141 74.6152 54.9291 87.4651Z" fill="url(#paint15_linear_0_1)"/>
</g>
<path d="M50.2336 79.6468C38.6964 88.1862 22.9621 86.9985 15.0949 77.0051C15.0738 76.9642 15.0316 76.9232 15.0105 76.8823C7.2488 66.8684 10.2438 51.9194 21.7388 43.4005C33.2759 34.8611 49.0103 36.0488 56.8775 46.0422C57.2993 46.5951 57.7001 47.148 58.0586 47.7214C64.3861 57.6738 61.138 71.5579 50.2336 79.6468Z" fill="url(#paint16_linear_0_1)"/>
<g filter="url(#filter3_b_0_1)">
<path d="M50.1807 79.5695C38.6107 88.2247 22.8316 87.0209 14.9421 76.8919C14.9209 76.8504 14.8786 76.8089 14.8574 76.7674C8.55423 66.68 11.8116 52.6282 22.747 44.4503C34.3169 35.7951 50.0961 36.9989 57.9857 47.1279L58.0491 47.1901C64.3947 57.2775 61.1373 71.3501 50.2019 79.5487L50.1807 79.5695Z" fill="white" fill-opacity="0.3"/>
</g>
<path d="M36.6679 48.9292C37.2921 47.7215 39.0892 47.9772 39.3519 49.311L40.6637 55.971C40.7817 56.5701 41.2657 57.029 41.8702 57.115L48.8075 58.1018C50.2089 58.3012 50.5067 60.1938 49.2342 60.8138L43.2778 63.7164C42.6923 64.0017 42.3722 64.6454 42.4981 65.2845L43.7516 71.6485C44.0187 73.0045 42.4034 73.9179 41.379 72.99L36.1064 68.2138C35.6716 67.8199 35.0409 67.7302 34.5136 67.9872L28.1182 71.1037C26.8758 71.7091 25.5793 70.3816 26.2139 69.1538L29.1922 63.3917C29.4913 62.8131 29.3634 62.1057 28.8807 61.6684L23.97 57.2201C22.9209 56.2697 23.7346 54.5352 25.136 54.7346L32.0734 55.7214C32.6779 55.8074 33.2706 55.5017 33.551 54.9593L36.6679 48.9292Z" fill="url(#paint17_linear_0_1)"/>
<path d="M117 92.8667L123.478 105L148 91" stroke="url(#paint18_linear_0_1)" stroke-width="5" stroke-linecap="round" stroke-linejoin="round"/>
<defs>
<filter id="filter0_b_0_1" x="42.8237" y="53.0055" width="154.059" height="97.2364" filterUnits="userSpaceOnUse" color-interpolation-filters="sRGB">
<feFlood flood-opacity="0" result="BackgroundImageFix"/>
<feGaussianBlur in="BackgroundImageFix" stdDeviation="2"/>
<feComposite in2="SourceAlpha" operator="in" result="effect1_backgroundBlur_0_1"/>
<feBlend mode="normal" in="SourceGraphic" in2="effect1_backgroundBlur_0_1" result="shape"/>
</filter>
<filter id="filter1_f_0_1" x="9.34473" y="39.8769" width="78.6504" height="72.2797" filterUnits="userSpaceOnUse" color-interpolation-filters="sRGB">
<feFlood flood-opacity="0" result="BackgroundImageFix"/>
<feBlend mode="normal" in="SourceGraphic" in2="BackgroundImageFix" result="shape"/>
<feGaussianBlur stdDeviation="2" result="effect1_foregroundBlur_0_1"/>
</filter>
<filter id="filter2_b_0_1" x="-4" y="23" width="78.9922" height="77.0473" filterUnits="userSpaceOnUse" color-interpolation-filters="sRGB">
<feFlood flood-opacity="0" result="BackgroundImageFix"/>
<feGaussianBlur in="BackgroundImageFix" stdDeviation="2"/>
<feComposite in2="SourceAlpha" operator="in" result="effect1_backgroundBlur_0_1"/>
<feBlend mode="normal" in="SourceGraphic" in2="effect1_backgroundBlur_0_1" result="shape"/>
</filter>
<filter id="filter3_b_0_1" x="5.92688" y="32.9271" width="61.0831" height="58.1656" filterUnits="userSpaceOnUse" color-interpolation-filters="sRGB">
<feFlood flood-opacity="0" result="BackgroundImageFix"/>
<feGaussianBlur in="BackgroundImageFix" stdDeviation="2.87143"/>
<feComposite in2="SourceAlpha" operator="in" result="effect1_backgroundBlur_0_1"/>
<feBlend mode="normal" in="SourceGraphic" in2="effect1_backgroundBlur_0_1" result="shape"/>
</filter>
<linearGradient id="paint0_linear_0_1" x1="187.59" y1="25.789" x2="99.0006" y2="162.169" gradientUnits="userSpaceOnUse">
<stop stop-color="#7273FF"/>
<stop offset="1" stop-color="#B8B9FF"/>
</linearGradient>
<linearGradient id="paint1_linear_0_1" x1="125.374" y1="83.9262" x2="207.354" y2="82.232" gradientUnits="userSpaceOnUse">
<stop stop-color="#F1F1FF"/>
<stop offset="1" stop-color="#CECFFF"/>
</linearGradient>
<linearGradient id="paint2_linear_0_1" x1="196.741" y1="75.866" x2="167.471" y2="96.9262" gradientUnits="userSpaceOnUse">
<stop stop-color="#F1F1FF"/>
<stop offset="1" stop-color="#E9E9FF"/>
</linearGradient>
<linearGradient id="paint3_linear_0_1" x1="97.326" y1="101.796" x2="195.946" y2="48.6101" gradientUnits="userSpaceOnUse">
<stop stop-color="white"/>
<stop offset="1" stop-color="#E5E6FF"/>
</linearGradient>
<linearGradient id="paint4_linear_0_1" x1="163.572" y1="67.4703" x2="153.264" y2="154.619" gradientUnits="userSpaceOnUse">
<stop stop-color="white" stop-opacity="0"/>
<stop offset="1" stop-color="white"/>
</linearGradient>
<linearGradient id="paint5_linear_0_1" x1="95.2263" y1="47.5583" x2="107.113" y2="45.1773" gradientUnits="userSpaceOnUse">
<stop stop-color="#494949"/>
<stop offset="0.0001" stop-color="#C9C4FF"/>
<stop offset="1" stop-color="white"/>
</linearGradient>
<linearGradient id="paint6_linear_0_1" x1="102.662" y1="26.7049" x2="117.655" y2="45.9152" gradientUnits="userSpaceOnUse">
<stop stop-color="#EBEBFF"/>
<stop offset="1" stop-color="#CBCDFF"/>
</linearGradient>
<linearGradient id="paint7_linear_0_1" x1="113.839" y1="52.8833" x2="130.218" y2="50.4979" gradientUnits="userSpaceOnUse">
<stop offset="0.0001" stop-color="#C9C4FF"/>
<stop offset="1" stop-color="white"/>
</linearGradient>
<linearGradient id="paint8_linear_0_1" x1="120.265" y1="17.5488" x2="139.871" y2="59.6429" gradientUnits="userSpaceOnUse">
<stop offset="0.0001" stop-color="#C9C4FF"/>
<stop offset="1" stop-color="white"/>
</linearGradient>
<linearGradient id="paint9_linear_0_1" x1="141.764" y1="54.6892" x2="152.338" y2="53.4149" gradientUnits="userSpaceOnUse">
<stop stop-color="#494949"/>
<stop offset="0.0001" stop-color="#C9C4FF"/>
<stop offset="1" stop-color="white"/>
</linearGradient>
<linearGradient id="paint10_linear_0_1" x1="147.171" y1="16.8673" x2="157.102" y2="53.7133" gradientUnits="userSpaceOnUse">
<stop offset="0.0001" stop-color="#C9C4FF"/>
<stop offset="1" stop-color="white"/>
</linearGradient>
<linearGradient id="paint11_linear_0_1" x1="164.643" y1="56.9487" x2="176.389" y2="53.9501" gradientUnits="userSpaceOnUse">
<stop stop-color="#494949"/>
<stop offset="0.0001" stop-color="#C9C4FF"/>
<stop offset="1" stop-color="white"/>
</linearGradient>
<linearGradient id="paint12_linear_0_1" x1="166.39" y1="15.4592" x2="179.981" y2="55.7563" gradientUnits="userSpaceOnUse">
<stop offset="0.0001" stop-color="#C9C4FF"/>
<stop offset="1" stop-color="white"/>
</linearGradient>
<radialGradient id="paint13_radial_0_1" cx="0" cy="0" r="1" gradientUnits="userSpaceOnUse" gradientTransform="translate(48.6699 76.0168) rotate(90) scale(29.8685 37.257)">
<stop stop-color="#7274FF"/>
<stop offset="1" stop-color="#7374FF" stop-opacity="0"/>
</radialGradient>
<linearGradient id="paint14_linear_0_1" x1="72.0689" y1="46.7596" x2="15.4749" y2="89.12" gradientUnits="userSpaceOnUse">
<stop stop-color="#7273FF"/>
<stop offset="1" stop-color="#B8B9FF"/>
</linearGradient>
<linearGradient id="paint15_linear_0_1" x1="25.0315" y1="55.9455" x2="77.7248" y2="46.9398" gradientUnits="userSpaceOnUse">
<stop stop-color="#F1F1FF"/>
<stop offset="1" stop-color="#CECFFF"/>
</linearGradient>
<linearGradient id="paint16_linear_0_1" x1="59.8597" y1="45.9951" x2="17.0283" y2="78.5162" gradientUnits="userSpaceOnUse">
<stop stop-color="#7273FF"/>
<stop offset="1" stop-color="#B8B9FF"/>
</linearGradient>
<linearGradient id="paint17_linear_0_1" x1="54.1154" y1="53.2178" x2="21.8531" y2="71.4304" gradientUnits="userSpaceOnUse">
<stop stop-color="#7273FF"/>
<stop offset="1" stop-color="#B8B9FF"/>
</linearGradient>
<linearGradient id="paint18_linear_0_1" x1="147.137" y1="93.4378" x2="135.344" y2="112.121" gradientUnits="userSpaceOnUse">
<stop stop-color="#7273FF"/>
<stop offset="1" stop-color="#B8B9FF"/>
</linearGradient>
</defs>
</svg>
