<svg width="183" height="189" viewBox="0 0 183 189" fill="none" xmlns="http://www.w3.org/2000/svg">
<g id="Group 2085666069">
<g id="Group">
<g id="Group_2">
<path id="Vector" d="M77.3457 114.361L58.3028 132.918L83.1211 158.386C86.3959 161.747 91.7845 161.816 95.145 158.542L101.998 151.863C105.359 148.589 105.429 143.2 102.154 139.839L77.3355 114.371L77.3457 114.361Z" fill="url(#paint0_linear_1_1085)"/>
<path id="Vector_2" d="M85.582 90.229C70.6831 71.7374 68.0088 49.1703 79.6089 39.8239C91.2089 30.4776 112.691 37.8913 127.59 56.3829C142.489 74.8746 145.163 97.4417 133.563 106.788C121.963 116.134 100.481 108.721 85.582 90.229Z" fill="#DDDDDD"/>
<path id="Vector_3" d="M37.2592 122.904C38.5765 129.514 42.3249 133.879 48.354 136.198C52.3436 137.741 56.8091 137.488 60.7087 135.75L73.3838 130.107L118.777 109.87C121.313 103.685 122.157 96.7159 120.843 89.6567L120.791 89.3771L98.7347 62.8066C92.6429 60.3827 85.8292 59.5973 78.9097 60.8853C76.8968 61.26 74.957 61.7947 73.0904 62.4893L49.5324 96.6106L39.929 110.518C37.4349 114.136 36.4045 118.623 37.2618 122.918L37.2592 122.904Z" fill="url(#paint1_linear_1_1085)"/>
<path id="Vector_4" d="M50.1428 102.804C52.5679 115.833 61.7479 125.911 73.3742 130.096L118.767 109.859C121.304 103.674 122.147 96.7048 120.833 89.6455L120.781 89.3659L98.7251 62.7954C92.6333 60.3715 90.3497 52.6105 83.4303 53.8985C81.4174 54.2732 79.4776 54.8079 77.611 55.5025L49.5229 96.5994C49.5429 98.6495 49.7411 100.724 50.1314 102.821L50.1428 102.804Z" fill="url(#paint2_linear_1_1085)"/>
<path id="Vector_5" d="M85.582 90.229C70.6831 71.7374 68.0088 49.1703 79.6089 39.8239C91.2089 30.4776 112.691 37.8913 127.59 56.3829C142.489 74.8746 145.163 97.4417 133.563 106.788C121.963 116.134 100.481 108.721 85.582 90.229Z" fill="url(#paint3_linear_1_1085)"/>
<path id="Vector_6" d="M124.139 99.4367C125.113 99.1716 125.947 98.7681 126.645 98.1949C132.386 93.5682 130.305 77.3063 119.006 63.287C108.573 50.3433 95.7864 45.3195 89.0361 47.1559C88.062 47.4209 87.2287 47.8244 86.5299 48.3976C80.7892 53.0244 82.8703 69.2863 94.1699 83.3055C104.602 96.2493 117.389 101.273 124.139 99.4367Z" fill="#A5A5A5"/>
<g id="Clip path group">
<mask id="mask0_1_1085" style="mask-type:luminance" maskUnits="userSpaceOnUse" x="83" y="46" width="47" height="54">
<g id="clippath">
<path id="Vector_7" d="M124.138 99.4313C125.112 99.1663 125.946 98.7628 126.644 98.1896C132.385 93.5628 130.304 77.3009 119.004 63.2817C108.572 50.3379 95.7852 45.3141 89.0349 47.1505C88.0607 47.4155 87.2274 47.8191 86.5287 48.3923C80.788 53.019 82.8691 69.2809 94.1687 83.3002C104.601 96.2439 117.388 101.268 124.138 99.4313Z" fill="white"/>
</g>
</mask>
<g mask="url(#mask0_1_1085)">
<g id="Group_3">
<path id="Vector_8" d="M124.138 99.4313C125.112 99.1663 125.946 98.7628 126.644 98.1896C132.385 93.5628 130.304 77.3009 119.004 63.2817C108.572 50.3379 95.7852 45.3141 89.0349 47.1505C88.0607 47.4155 87.2274 47.8191 86.5287 48.3923C80.788 53.019 82.8691 69.2809 94.1687 83.3002C104.601 96.2439 117.388 101.268 124.138 99.4313Z" fill="url(#paint4_linear_1_1085)"/>
<path id="Vector_9" d="M81.4301 73.8305L97.3384 96.5572L115.374 77.6518L105.383 63.3503L81.4301 73.8305Z" fill="url(#paint5_linear_1_1085)"/>
<g id="Vector_10">
<path d="M104.557 74.5856C101.653 70.4355 101.49 65.5384 104.193 63.6476C106.895 61.7568 111.44 63.5884 114.343 67.7385C117.247 71.8887 117.41 76.7858 114.708 78.6766C112.005 80.5673 107.461 78.7358 104.557 74.5856Z" fill="white"/>
<path d="M104.557 74.5856C101.653 70.4355 101.49 65.5384 104.193 63.6476C106.895 61.7568 111.44 63.5884 114.343 67.7385C117.247 71.8887 117.41 76.7858 114.708 78.6766C112.005 80.5673 107.461 78.7358 104.557 74.5856Z" fill="url(#paint6_linear_1_1085)"/>
</g>
</g>
</g>
</g>
</g>
</g>
</g>
<defs>
<linearGradient id="paint0_linear_1_1085" x1="60.3501" y1="177.164" x2="78.8987" y2="109.567" gradientUnits="userSpaceOnUse">
<stop offset="0.0001" stop-color="#C9C4FF"/>
<stop offset="1" stop-color="white"/>
</linearGradient>
<linearGradient id="paint1_linear_1_1085" x1="35.5518" y1="104.995" x2="110.683" y2="127.661" gradientUnits="userSpaceOnUse">
<stop stop-color="#5E5FFF"/>
<stop offset="1" stop-color="#9494FF"/>
</linearGradient>
<linearGradient id="paint2_linear_1_1085" x1="46.7414" y1="73.6704" x2="118.126" y2="106.365" gradientUnits="userSpaceOnUse">
<stop stop-color="#7273FF"/>
<stop offset="1" stop-color="#B8B9FF"/>
</linearGradient>
<linearGradient id="paint3_linear_1_1085" x1="127.59" y1="56.3829" x2="85.582" y2="90.229" gradientUnits="userSpaceOnUse">
<stop stop-color="#494949"/>
<stop offset="0.0001" stop-color="#C9C4FF"/>
<stop offset="1" stop-color="white"/>
</linearGradient>
<linearGradient id="paint4_linear_1_1085" x1="82.8998" y1="82.797" x2="135.805" y2="54.9276" gradientUnits="userSpaceOnUse">
<stop offset="0.0001" stop-color="#C9C4FF"/>
<stop offset="1" stop-color="white"/>
</linearGradient>
<linearGradient id="paint5_linear_1_1085" x1="82.647" y1="74.9368" x2="113.963" y2="87.5758" gradientUnits="userSpaceOnUse">
<stop stop-color="#7273FF"/>
<stop offset="1" stop-color="#B8B9FF"/>
</linearGradient>
<linearGradient id="paint6_linear_1_1085" x1="109.008" y1="58.4578" x2="103.49" y2="63.5018" gradientUnits="userSpaceOnUse">
<stop stop-color="#E4E4FF"/>
<stop offset="1" stop-color="white"/>
</linearGradient>
</defs>
</svg>
